<svg width="1332" height="1331" viewBox="0 0 1332 1331" fill="none" xmlns="http://www.w3.org/2000/svg">
<g clip-path="url(#clip0_128_95)">
<rect x="0.324219" width="1330.95" height="1330.95" fill="#B6D7E4"/>
<path d="M-25.4719 127.153L-37.0719 85.5531L105.728 -64.0469H155.728L-25.4719 127.153ZM-51.0719 215.953V-64.0469H-13.0719V215.953H-51.0719ZM112.528 215.953L-1.47187 73.5531L25.3281 48.7531L160.928 215.953H112.528ZM306.659 215.953L304.659 181.153V111.553C304.659 96.8865 302.926 84.7531 299.459 75.1531C296.259 65.2864 291.193 57.8198 284.259 52.7531C277.593 47.6865 268.659 45.1531 257.459 45.1531C247.059 45.1531 237.859 47.2865 229.859 51.5531C222.126 55.8198 215.726 62.4865 210.659 71.5531L176.259 58.7531C181.059 49.6865 187.193 41.5531 194.659 34.3531C202.126 27.1531 211.059 21.5531 221.459 17.5531C232.126 13.2864 244.393 11.1531 258.259 11.1531C276.926 11.1531 292.526 14.7531 305.059 21.9531C317.859 29.1531 327.326 39.9531 333.459 54.3531C339.859 68.4865 342.926 86.0865 342.659 107.153L342.259 215.953H306.659ZM248.259 220.753C224.526 220.753 205.993 215.42 192.659 204.753C179.593 193.82 173.059 178.753 173.059 159.553C173.059 139.02 179.859 123.42 193.459 112.753C207.326 101.82 226.526 96.3531 251.059 96.3531H306.659V126.353H261.459C243.059 126.353 230.126 129.286 222.659 135.153C215.193 140.753 211.459 148.62 211.459 158.753C211.459 168.086 214.926 175.42 221.859 180.753C229.059 185.82 238.926 188.353 251.459 188.353C262.393 188.353 271.726 185.82 279.459 180.753C287.459 175.686 293.593 169.02 297.859 160.753C302.393 152.22 304.659 142.753 304.659 132.353H322.659C322.659 159.553 316.393 181.153 303.859 197.153C291.326 212.886 272.793 220.753 248.259 220.753ZM410.509 215.953V-6.04688C410.509 -27.1135 415.576 -42.9802 425.709 -53.6469C435.843 -64.5802 451.176 -70.0469 471.709 -70.0469C477.843 -70.0469 484.509 -68.9802 491.709 -66.8469C498.909 -64.9802 506.243 -62.3136 513.709 -58.8469L499.709 -29.6469C494.109 -32.3135 489.176 -34.1802 484.909 -35.2469C480.909 -36.5802 477.443 -37.2469 474.509 -37.2469C465.709 -37.2469 459.176 -34.3135 454.909 -28.4469C450.643 -22.8469 448.509 -14.0469 448.509 -2.04688V215.953H410.509ZM374.909 47.5531V15.9531H503.709V47.5531H374.909ZM577.7 155.553L554.1 129.553L659.3 15.9531H705.7L577.7 155.553ZM540.9 215.953V-64.0469H578.9V215.953H540.9ZM667.7 215.953L594.1 106.353L618.9 79.9531L713.3 215.953H667.7ZM857.441 215.953L855.441 181.153V111.553C855.441 96.8865 853.707 84.7531 850.241 75.1531C847.041 65.2864 841.974 57.8198 835.041 52.7531C828.374 47.6865 819.441 45.1531 808.241 45.1531C797.841 45.1531 788.641 47.2865 780.641 51.5531C772.907 55.8198 766.507 62.4865 761.441 71.5531L727.041 58.7531C731.841 49.6865 737.974 41.5531 745.441 34.3531C752.907 27.1531 761.841 21.5531 772.241 17.5531C782.907 13.2864 795.174 11.1531 809.041 11.1531C827.707 11.1531 843.307 14.7531 855.841 21.9531C868.641 29.1531 878.107 39.9531 884.241 54.3531C890.641 68.4865 893.707 86.0865 893.441 107.153L893.041 215.953H857.441ZM799.041 220.753C775.307 220.753 756.774 215.42 743.441 204.753C730.374 193.82 723.841 178.753 723.841 159.553C723.841 139.02 730.641 123.42 744.241 112.753C758.107 101.82 777.307 96.3531 801.841 96.3531H857.441V126.353H812.241C793.841 126.353 780.907 129.286 773.441 135.153C765.974 140.753 762.241 148.62 762.241 158.753C762.241 168.086 765.707 175.42 772.641 180.753C779.841 185.82 789.707 188.353 802.241 188.353C813.174 188.353 822.507 185.82 830.241 180.753C838.241 175.686 844.374 169.02 848.641 160.753C853.174 152.22 855.441 142.753 855.441 132.353H873.441C873.441 159.553 867.174 181.153 854.641 197.153C842.107 212.886 823.574 220.753 799.041 220.753ZM1048.15 215.953V-64.0469H1087.35V215.953H1048.15ZM1082.15 95.9531V59.9531H1200.95V95.9531H1082.15ZM1082.15 -28.0469V-64.0469H1217.75V-28.0469H1082.15ZM1276.6 108.353C1276.6 86.7531 1280.73 69.1531 1289 55.5531C1297.27 41.9531 1307.93 31.8198 1321 25.1531C1334.07 18.4864 1347.8 15.1531 1362.2 15.1531V51.1531C1350.2 51.1531 1338.73 53.0198 1327.8 56.7531C1317.13 60.2198 1308.33 66.0865 1301.4 74.3531C1294.73 82.3531 1291.4 93.2865 1291.4 107.153L1276.6 108.353ZM1253.4 215.953V15.9531H1291.4V215.953H1253.4ZM1481.25 220.753C1461.79 220.753 1444.59 216.353 1429.65 207.553C1414.72 198.486 1402.99 186.086 1394.45 170.353C1385.92 154.62 1381.65 136.486 1381.65 115.953C1381.65 95.4198 1385.92 77.2865 1394.45 61.5531C1402.99 45.8198 1414.72 33.5531 1429.65 24.7531C1444.85 15.6864 1462.19 11.1531 1481.65 11.1531C1499.79 11.1531 1515.79 15.8198 1529.65 25.1531C1543.79 34.2198 1554.72 47.2865 1562.45 64.3531C1570.45 81.1531 1574.45 101.02 1574.45 123.953H1536.45C1536.72 106.886 1534.59 92.4865 1530.05 80.7531C1525.79 69.0198 1519.39 60.2198 1510.85 54.3531C1502.59 48.2198 1492.59 45.1531 1480.85 45.1531C1468.32 45.1531 1457.52 48.0864 1448.45 53.9531C1439.39 59.5531 1432.32 67.6865 1427.25 78.3531C1422.45 88.7531 1420.05 101.553 1420.05 116.753C1420.05 130.886 1422.85 143.153 1428.45 153.553C1434.05 163.686 1441.65 171.686 1451.25 177.553C1460.85 183.153 1471.79 185.953 1484.05 185.953C1497.12 185.953 1507.92 182.886 1516.45 176.753C1525.25 170.62 1532.19 162.753 1537.25 153.153L1571.25 168.753C1565.92 179.153 1558.99 188.353 1550.45 196.353C1541.92 204.086 1531.79 210.086 1520.05 214.353C1508.59 218.62 1495.65 220.753 1481.25 220.753ZM1406.45 123.953L1406.85 92.7531H1553.25V123.953H1406.45ZM1747.99 215.953L1745.59 179.153V15.9531H1783.19V215.953H1747.99ZM1607.19 130.353V15.9531H1645.19V118.353L1607.19 130.353ZM1645.19 118.353C1645.19 136.22 1647.19 149.953 1651.19 159.553C1655.46 169.153 1661.33 175.82 1668.79 179.553C1676.26 183.286 1684.66 185.286 1693.99 185.553C1710.26 185.553 1722.93 179.82 1731.99 168.353C1741.06 156.886 1745.59 140.753 1745.59 119.953H1761.99C1761.99 141.02 1758.93 159.153 1752.79 174.353C1746.66 189.286 1737.73 200.753 1725.99 208.753C1714.53 216.753 1700.66 220.753 1684.39 220.753C1660.39 220.753 1641.46 213.286 1627.59 198.353C1613.99 183.42 1607.19 160.753 1607.19 130.353L1645.19 118.353ZM1982.61 215.953L1981.01 178.753V-64.0469H2018.61V215.953H1982.61ZM1915.41 220.753C1897.28 220.753 1881.41 216.353 1867.81 207.553C1854.48 198.753 1843.95 186.486 1836.21 170.753C1828.75 155.02 1825.01 136.753 1825.01 115.953C1825.01 94.8865 1828.75 76.6198 1836.21 61.1531C1843.95 45.4198 1854.48 33.1531 1867.81 24.3531C1881.41 15.5531 1897.28 11.1531 1915.41 11.1531C1932.21 11.1531 1946.75 15.5531 1959.01 24.3531C1971.55 33.1531 1981.15 45.4198 1987.81 61.1531C1994.48 76.6198 1997.81 94.8865 1997.81 115.953C1997.81 136.753 1994.48 155.02 1987.81 170.753C1981.15 186.486 1971.55 198.753 1959.01 207.553C1946.75 216.353 1932.21 220.753 1915.41 220.753ZM1924.21 186.353C1935.41 186.353 1945.28 183.42 1953.81 177.553C1962.35 171.42 1969.01 163.153 1973.81 152.753C1978.61 142.086 1981.01 129.82 1981.01 115.953C1981.01 102.086 1978.61 89.9531 1973.81 79.5531C1969.01 68.8865 1962.35 60.6198 1953.81 54.7531C1945.28 48.6198 1935.28 45.5531 1923.81 45.5531C1912.08 45.5531 1901.68 48.6198 1892.61 54.7531C1883.55 60.6198 1876.48 68.8865 1871.41 79.5531C1866.35 89.9531 1863.81 102.086 1863.81 115.953C1863.81 129.82 1866.35 142.086 1871.41 152.753C1876.75 163.153 1883.95 171.42 1893.01 177.553C1902.08 183.42 1912.48 186.353 1924.21 186.353ZM76.1281 620.753C47.8615 620.753 22.6615 614.62 0.528129 602.353C-21.3385 589.82 -38.5385 572.753 -51.0719 551.153C-63.3385 529.286 -69.4719 504.353 -69.4719 476.353C-69.4719 447.82 -63.3385 422.753 -51.0719 401.153C-38.5385 379.286 -21.3385 362.22 0.528129 349.953C22.6615 337.42 47.8615 331.153 76.1281 331.153C91.5948 331.153 106.395 333.686 120.528 338.753C134.928 343.553 147.861 350.353 159.328 359.153C171.061 367.686 180.528 377.553 187.728 388.753L156.128 409.553C150.795 401.286 143.861 393.953 135.328 387.553C126.795 381.153 117.328 376.22 106.928 372.753C96.7948 369.02 86.5281 367.153 76.1281 367.153C55.5948 367.153 37.3281 371.82 21.3281 381.153C5.5948 390.486 -6.80521 403.286 -15.8719 419.553C-24.9385 435.82 -29.4719 454.753 -29.4719 476.353C-29.4719 497.42 -25.0719 516.086 -16.2719 532.353C-7.2052 548.62 5.32813 561.42 21.3281 570.753C37.5948 580.086 56.1281 584.753 76.9281 584.753C93.7281 584.753 108.661 581.286 121.728 574.353C135.061 567.42 145.461 557.686 152.928 545.153C160.661 532.62 164.528 518.086 164.528 501.553L202.528 497.953C202.528 522.753 197.061 544.353 186.128 562.753C175.461 581.153 160.661 595.42 141.728 605.553C122.795 615.686 100.928 620.753 76.1281 620.753ZM96.5281 503.953V471.153H202.528V499.953L182.528 503.953H96.5281ZM332.472 620.753C312.472 620.753 294.872 616.353 279.672 607.553C264.472 598.486 252.472 586.086 243.672 570.353C235.139 554.62 230.872 536.486 230.872 515.953C230.872 495.42 235.139 477.286 243.672 461.553C252.205 445.82 264.072 433.553 279.272 424.753C294.472 415.686 311.939 411.153 331.672 411.153C351.405 411.153 368.872 415.686 384.072 424.753C399.272 433.553 411.139 445.82 419.672 461.553C428.205 477.286 432.472 495.42 432.472 515.953C432.472 536.486 428.205 554.62 419.672 570.353C411.139 586.086 399.272 598.486 384.072 607.553C369.139 616.353 351.939 620.753 332.472 620.753ZM332.472 585.953C344.472 585.953 355.139 583.02 364.472 577.153C373.805 571.02 381.005 562.753 386.072 552.353C391.405 541.953 394.072 529.82 394.072 515.953C394.072 502.086 391.405 489.953 386.072 479.553C381.005 469.153 373.672 461.02 364.072 455.153C354.472 449.02 343.672 445.953 331.672 445.953C319.405 445.953 308.605 449.02 299.272 455.153C289.939 461.02 282.605 469.153 277.272 479.553C271.939 489.953 269.272 502.086 269.272 515.953C269.272 529.82 271.939 541.953 277.272 552.353C282.605 562.753 290.072 571.02 299.672 577.153C309.272 583.02 320.205 585.953 332.472 585.953ZM562.503 620.753C543.036 620.753 525.836 616.353 510.903 607.553C495.97 598.486 484.236 586.086 475.703 570.353C467.17 554.62 462.903 536.486 462.903 515.953C462.903 495.42 467.17 477.286 475.703 461.553C484.236 445.82 495.97 433.553 510.903 424.753C526.103 415.686 543.436 411.153 562.903 411.153C581.036 411.153 597.036 415.82 610.903 425.153C625.036 434.22 635.97 447.286 643.703 464.353C651.703 481.153 655.703 501.02 655.703 523.953H617.703C617.97 506.886 615.836 492.486 611.303 480.753C607.036 469.02 600.636 460.22 592.103 454.353C583.836 448.22 573.836 445.153 562.103 445.153C549.57 445.153 538.77 448.086 529.703 453.953C520.636 459.553 513.57 467.686 508.503 478.353C503.703 488.753 501.303 501.553 501.303 516.753C501.303 530.886 504.103 543.153 509.703 553.553C515.303 563.686 522.903 571.686 532.503 577.553C542.103 583.153 553.036 585.953 565.303 585.953C578.37 585.953 589.17 582.886 597.703 576.753C606.503 570.62 613.436 562.753 618.503 553.153L652.503 568.753C647.17 579.153 640.236 588.353 631.703 596.353C623.17 604.086 613.036 610.086 601.303 614.353C589.836 618.62 576.903 620.753 562.503 620.753ZM487.703 523.953L488.103 492.753H634.503V523.953H487.703ZM770.444 620.753C750.444 620.753 734.977 615.686 724.044 605.553C713.11 595.153 707.644 580.353 707.644 561.153V353.553H745.644V555.553C745.644 565.42 748.044 573.02 752.844 578.353C757.91 583.42 765.11 585.953 774.444 585.953C777.11 585.953 780.044 585.42 783.244 584.353C786.444 583.286 790.31 581.153 794.844 577.953L809.244 607.553C802.31 612.086 795.644 615.42 789.244 617.553C783.11 619.686 776.844 620.753 770.444 620.753ZM673.644 448.753V415.953H802.444V448.753H673.644ZM847.159 615.953L846.759 331.553H884.759V615.953H847.159ZM985.559 615.953V513.553L1023.16 501.553V615.953H985.559ZM985.559 513.553C985.559 495.42 983.426 481.686 979.159 472.353C974.893 462.753 969.026 456.086 961.559 452.353C954.359 448.62 946.093 446.62 936.759 446.353C920.226 446.353 907.426 452.086 898.359 463.553C889.293 475.02 884.759 491.153 884.759 511.953H868.759C868.759 490.886 871.826 472.886 877.959 457.953C884.093 442.753 892.893 431.153 904.359 423.153C916.093 415.153 929.959 411.153 945.959 411.153C970.226 411.153 989.159 418.62 1002.76 433.553C1016.63 448.22 1023.43 470.886 1023.16 501.553L985.559 513.553ZM1159.38 620.753C1139.91 620.753 1122.71 616.353 1107.78 607.553C1092.84 598.486 1081.11 586.086 1072.58 570.353C1064.04 554.62 1059.78 536.486 1059.78 515.953C1059.78 495.42 1064.04 477.286 1072.58 461.553C1081.11 445.82 1092.84 433.553 1107.78 424.753C1122.98 415.686 1140.31 411.153 1159.78 411.153C1177.91 411.153 1193.91 415.82 1207.78 425.153C1221.91 434.22 1232.84 447.286 1240.58 464.353C1248.58 481.153 1252.58 501.02 1252.58 523.953H1214.58C1214.84 506.886 1212.71 492.486 1208.18 480.753C1203.91 469.02 1197.51 460.22 1188.98 454.353C1180.71 448.22 1170.71 445.153 1158.98 445.153C1146.44 445.153 1135.64 448.086 1126.58 453.953C1117.51 459.553 1110.44 467.686 1105.38 478.353C1100.58 488.753 1098.18 501.553 1098.18 516.753C1098.18 530.886 1100.98 543.153 1106.58 553.553C1112.18 563.686 1119.78 571.686 1129.38 577.553C1138.98 583.153 1149.91 585.953 1162.18 585.953C1175.24 585.953 1186.04 582.886 1194.58 576.753C1203.38 570.62 1210.31 562.753 1215.38 553.153L1249.38 568.753C1244.04 579.153 1237.11 588.353 1228.58 596.353C1220.04 604.086 1209.91 610.086 1198.18 614.353C1186.71 618.62 1173.78 620.753 1159.38 620.753ZM1084.58 523.953L1084.98 492.753H1231.38V523.953H1084.58ZM-51.0719 1015.95V735.953H-11.8719V1015.95H-51.0719ZM-17.0719 895.953V859.953H101.728V895.953H-17.0719ZM-17.0719 771.953V735.953H118.528V771.953H-17.0719ZM177.381 908.353C177.381 886.753 181.515 869.153 189.781 855.553C198.048 841.953 208.715 831.82 221.781 825.153C234.848 818.486 248.581 815.153 262.981 815.153V851.153C250.981 851.153 239.515 853.02 228.581 856.753C217.915 860.22 209.115 866.086 202.181 874.353C195.515 882.353 192.181 893.286 192.181 907.153L177.381 908.353ZM154.181 1015.95V815.953H192.181V1015.95H154.181ZM382.034 1020.75C362.568 1020.75 345.368 1016.35 330.434 1007.55C315.501 998.486 303.768 986.086 295.234 970.353C286.701 954.62 282.434 936.486 282.434 915.953C282.434 895.42 286.701 877.286 295.234 861.553C303.768 845.82 315.501 833.553 330.434 824.753C345.634 815.686 362.968 811.153 382.434 811.153C400.568 811.153 416.568 815.82 430.434 825.153C444.568 834.22 455.501 847.286 463.234 864.353C471.234 881.153 475.234 901.02 475.234 923.953H437.234C437.501 906.886 435.368 892.486 430.834 880.753C426.568 869.02 420.168 860.22 411.634 854.353C403.368 848.22 393.368 845.153 381.634 845.153C369.101 845.153 358.301 848.086 349.234 853.953C340.168 859.553 333.101 867.686 328.034 878.353C323.234 888.753 320.834 901.553 320.834 916.753C320.834 930.886 323.634 943.153 329.234 953.553C334.834 963.686 342.434 971.686 352.034 977.553C361.634 983.153 372.568 985.953 384.834 985.953C397.901 985.953 408.701 982.886 417.234 976.753C426.034 970.62 432.968 962.753 438.034 953.153L472.034 968.753C466.701 979.153 459.768 988.353 451.234 996.353C442.701 1004.09 432.568 1010.09 420.834 1014.35C409.368 1018.62 396.434 1020.75 382.034 1020.75ZM307.234 923.953L307.634 892.753H454.034V923.953H307.234ZM648.775 1015.95L646.375 979.153V815.953H683.975V1015.95H648.775ZM507.975 930.353V815.953H545.975V918.353L507.975 930.353ZM545.975 918.353C545.975 936.22 547.975 949.953 551.975 959.553C556.242 969.153 562.108 975.82 569.575 979.553C577.042 983.286 585.442 985.286 594.775 985.553C611.042 985.553 623.708 979.82 632.775 968.353C641.842 956.886 646.375 940.753 646.375 919.953H662.775C662.775 941.02 659.708 959.153 653.575 974.353C647.442 989.286 638.508 1000.75 626.775 1008.75C615.308 1016.75 601.442 1020.75 585.175 1020.75C561.175 1020.75 542.242 1013.29 528.375 998.353C514.775 983.42 507.975 960.753 507.975 930.353L545.975 918.353ZM883.394 1015.95L881.794 978.753V735.953H919.394V1015.95H883.394ZM816.194 1020.75C798.06 1020.75 782.194 1016.35 768.594 1007.55C755.26 998.753 744.727 986.486 736.994 970.753C729.527 955.02 725.794 936.753 725.794 915.953C725.794 894.886 729.527 876.62 736.994 861.153C744.727 845.42 755.26 833.153 768.594 824.353C782.194 815.553 798.06 811.153 816.194 811.153C832.994 811.153 847.527 815.553 859.794 824.353C872.327 833.153 881.927 845.42 888.594 861.153C895.26 876.62 898.594 894.886 898.594 915.953C898.594 936.753 895.26 955.02 888.594 970.753C881.927 986.486 872.327 998.753 859.794 1007.55C847.527 1016.35 832.994 1020.75 816.194 1020.75ZM824.994 986.353C836.194 986.353 846.06 983.42 854.594 977.553C863.127 971.42 869.794 963.153 874.594 952.753C879.394 942.086 881.794 929.82 881.794 915.953C881.794 902.086 879.394 889.953 874.594 879.553C869.794 868.886 863.127 860.62 854.594 854.753C846.06 848.62 836.06 845.553 824.594 845.553C812.86 845.553 802.46 848.62 793.394 854.753C784.327 860.62 777.26 868.886 772.194 879.553C767.127 889.953 764.594 902.086 764.594 915.953C764.594 929.82 767.127 942.086 772.194 952.753C777.527 963.153 784.727 971.42 793.794 977.553C802.86 983.42 813.26 986.353 824.994 986.353ZM1108.55 1020.75C1080.28 1020.75 1055.08 1014.62 1032.95 1002.35C1011.08 989.82 993.883 972.753 981.35 951.153C969.083 929.286 962.95 904.353 962.95 876.353C962.95 847.82 969.083 822.753 981.35 801.153C993.883 779.286 1011.08 762.22 1032.95 749.953C1055.08 737.42 1080.28 731.153 1108.55 731.153C1124.02 731.153 1138.82 733.686 1152.95 738.753C1167.35 743.553 1180.28 750.353 1191.75 759.153C1203.48 767.686 1212.95 777.553 1220.15 788.753L1188.55 809.553C1183.22 801.286 1176.28 793.953 1167.75 787.553C1159.22 781.153 1149.75 776.22 1139.35 772.753C1129.22 769.02 1118.95 767.153 1108.55 767.153C1088.02 767.153 1069.75 771.82 1053.75 781.153C1038.02 790.486 1025.62 803.286 1016.55 819.553C1007.48 835.82 1002.95 854.753 1002.95 876.353C1002.95 897.42 1007.35 916.086 1016.15 932.353C1025.22 948.62 1037.75 961.42 1053.75 970.753C1070.02 980.086 1088.55 984.753 1109.35 984.753C1126.15 984.753 1141.08 981.286 1154.15 974.353C1167.48 967.42 1177.88 957.686 1185.35 945.153C1193.08 932.62 1196.95 918.086 1196.95 901.553L1234.95 897.953C1234.95 922.753 1229.48 944.353 1218.55 962.753C1207.88 981.153 1193.08 995.42 1174.15 1005.55C1155.22 1015.69 1133.35 1020.75 1108.55 1020.75ZM1128.95 903.953V871.153H1234.95V899.953L1214.95 903.953H1128.95ZM1364.89 1020.75C1344.89 1020.75 1327.29 1016.35 1312.09 1007.55C1296.89 998.486 1284.89 986.086 1276.09 970.353C1267.56 954.62 1263.29 936.486 1263.29 915.953C1263.29 895.42 1267.56 877.286 1276.09 861.553C1284.63 845.82 1296.49 833.553 1311.69 824.753C1326.89 815.686 1344.36 811.153 1364.09 811.153C1383.83 811.153 1401.29 815.686 1416.49 824.753C1431.69 833.553 1443.56 845.82 1452.09 861.553C1460.63 877.286 1464.89 895.42 1464.89 915.953C1464.89 936.486 1460.63 954.62 1452.09 970.353C1443.56 986.086 1431.69 998.486 1416.49 1007.55C1401.56 1016.35 1384.36 1020.75 1364.89 1020.75ZM1364.89 985.953C1376.89 985.953 1387.56 983.02 1396.89 977.153C1406.23 971.02 1413.43 962.753 1418.49 952.353C1423.83 941.953 1426.49 929.82 1426.49 915.953C1426.49 902.086 1423.83 889.953 1418.49 879.553C1413.43 869.153 1406.09 861.02 1396.49 855.153C1386.89 849.02 1376.09 845.953 1364.09 845.953C1351.83 845.953 1341.03 849.02 1331.69 855.153C1322.36 861.02 1315.03 869.153 1309.69 879.553C1304.36 889.953 1301.69 902.086 1301.69 915.953C1301.69 929.82 1304.36 941.953 1309.69 952.353C1315.03 962.753 1322.49 971.02 1332.09 977.153C1341.69 983.02 1352.63 985.953 1364.89 985.953ZM1583.73 1020.75C1563.73 1020.75 1548.26 1015.69 1537.33 1005.55C1526.39 995.153 1520.93 980.353 1520.93 961.153V753.553H1558.93V955.553C1558.93 965.42 1561.33 973.02 1566.13 978.353C1571.19 983.42 1578.39 985.953 1587.73 985.953C1590.39 985.953 1593.33 985.42 1596.53 984.353C1599.73 983.286 1603.59 981.153 1608.13 977.953L1622.53 1007.55C1615.59 1012.09 1608.93 1015.42 1602.53 1017.55C1596.39 1019.69 1590.13 1020.75 1583.73 1020.75ZM1486.93 848.753V815.953H1615.73V848.753H1486.93ZM1737.24 1020.75C1717.24 1020.75 1701.77 1015.69 1690.84 1005.55C1679.91 995.153 1674.44 980.353 1674.44 961.153V753.553H1712.44V955.553C1712.44 965.42 1714.84 973.02 1719.64 978.353C1724.71 983.42 1731.91 985.953 1741.24 985.953C1743.91 985.953 1746.84 985.42 1750.04 984.353C1753.24 983.286 1757.11 981.153 1761.64 977.953L1776.04 1007.55C1769.11 1012.09 1762.44 1015.42 1756.04 1017.55C1749.91 1019.69 1743.64 1020.75 1737.24 1020.75ZM1640.44 848.753V815.953H1769.24V848.753H1640.44ZM1813.96 1015.95L1813.56 731.553H1851.56V1015.95H1813.96ZM1952.36 1015.95V913.553L1989.96 901.553V1015.95H1952.36ZM1952.36 913.553C1952.36 895.42 1950.22 881.686 1945.96 872.353C1941.69 862.753 1935.82 856.086 1928.36 852.353C1921.16 848.62 1912.89 846.62 1903.56 846.353C1887.02 846.353 1874.22 852.086 1865.16 863.553C1856.09 875.02 1851.56 891.153 1851.56 911.953H1835.56C1835.56 890.886 1838.62 872.886 1844.76 857.953C1850.89 842.753 1859.69 831.153 1871.16 823.153C1882.89 815.153 1896.76 811.153 1912.76 811.153C1937.02 811.153 1955.96 818.62 1969.56 833.553C1983.42 848.22 1990.22 870.886 1989.96 901.553L1952.36 913.553ZM28.1281 1420.75C8.66146 1420.75 -8.53854 1416.35 -23.4719 1407.55C-38.4052 1398.49 -50.1385 1386.09 -58.6719 1370.35C-67.2052 1354.62 -71.4719 1336.49 -71.4719 1315.95C-71.4719 1295.42 -67.2052 1277.29 -58.6719 1261.55C-50.1385 1245.82 -38.4052 1233.55 -23.4719 1224.75C-8.27187 1215.69 9.06146 1211.15 28.5281 1211.15C46.6615 1211.15 62.6615 1215.82 76.5281 1225.15C90.6615 1234.22 101.595 1247.29 109.328 1264.35C117.328 1281.15 121.328 1301.02 121.328 1323.95H83.3281C83.5948 1306.89 81.4615 1292.49 76.9281 1280.75C72.6615 1269.02 66.2615 1260.22 57.7281 1254.35C49.4615 1248.22 39.4615 1245.15 27.7281 1245.15C15.1948 1245.15 4.3948 1248.09 -4.67187 1253.95C-13.7385 1259.55 -20.8052 1267.69 -25.8719 1278.35C-30.6719 1288.75 -33.0719 1301.55 -33.0719 1316.75C-33.0719 1330.89 -30.2719 1343.15 -24.6719 1353.55C-19.0719 1363.69 -11.4719 1371.69 -1.87187 1377.55C7.72813 1383.15 18.6615 1385.95 30.9281 1385.95C43.9948 1385.95 54.7948 1382.89 63.3281 1376.75C72.1281 1370.62 79.0615 1362.75 84.1281 1353.15L118.128 1368.75C112.795 1379.15 105.861 1388.35 97.3281 1396.35C88.7948 1404.09 78.6615 1410.09 66.9281 1414.35C55.4615 1418.62 42.5281 1420.75 28.1281 1420.75ZM-46.6719 1323.95L-46.2719 1292.75H100.128V1323.95H-46.6719ZM158.869 1415.95V1135.95H196.869V1415.95H158.869ZM269.494 1415.95V1193.95C269.494 1172.89 274.56 1157.02 284.694 1146.35C294.827 1135.42 310.16 1129.95 330.694 1129.95C336.827 1129.95 343.494 1131.02 350.694 1133.15C357.894 1135.02 365.227 1137.69 372.694 1141.15L358.694 1170.35C353.094 1167.69 348.16 1165.82 343.894 1164.75C339.894 1163.42 336.427 1162.75 333.494 1162.75C324.694 1162.75 318.16 1165.69 313.894 1171.55C309.627 1177.15 307.494 1185.95 307.494 1197.95V1415.95H269.494ZM233.894 1247.55V1215.95H362.694V1247.55H233.894ZM532.341 1327.15L520.741 1285.55L663.541 1135.95H713.541L532.341 1327.15ZM506.741 1415.95V1135.95H544.741V1415.95H506.741ZM670.341 1415.95L556.341 1273.55L583.141 1248.75L718.741 1415.95H670.341ZM864.472 1415.95L862.472 1381.15V1311.55C862.472 1296.89 860.739 1284.75 857.272 1275.15C854.072 1265.29 849.005 1257.82 842.072 1252.75C835.405 1247.69 826.472 1245.15 815.272 1245.15C804.872 1245.15 795.672 1247.29 787.672 1251.55C779.939 1255.82 773.539 1262.49 768.472 1271.55L734.072 1258.75C738.872 1249.69 745.005 1241.55 752.472 1234.35C759.939 1227.15 768.872 1221.55 779.272 1217.55C789.939 1213.29 802.205 1211.15 816.072 1211.15C834.739 1211.15 850.339 1214.75 862.872 1221.95C875.672 1229.15 885.139 1239.95 891.272 1254.35C897.672 1268.49 900.739 1286.09 900.472 1307.15L900.072 1415.95H864.472ZM806.072 1420.75C782.339 1420.75 763.805 1415.42 750.472 1404.75C737.405 1393.82 730.872 1378.75 730.872 1359.55C730.872 1339.02 737.672 1323.42 751.272 1312.75C765.139 1301.82 784.339 1296.35 808.872 1296.35H864.472V1326.35H819.272C800.872 1326.35 787.939 1329.29 780.472 1335.15C773.005 1340.75 769.272 1348.62 769.272 1358.75C769.272 1368.09 772.739 1375.42 779.672 1380.75C786.872 1385.82 796.739 1388.35 809.272 1388.35C820.205 1388.35 829.539 1385.82 837.272 1380.75C845.272 1375.69 851.405 1369.02 855.672 1360.75C860.205 1352.22 862.472 1342.75 862.472 1332.35H880.472C880.472 1359.55 874.205 1381.15 861.672 1397.15C849.139 1412.89 830.605 1420.75 806.072 1420.75ZM948.322 1415.95V1215.95H983.922L986.322 1252.75V1415.95H948.322ZM1086.72 1415.95V1313.55L1124.72 1301.55V1415.95H1086.72ZM1086.72 1313.55C1086.72 1295.42 1084.59 1281.69 1080.32 1272.35C1076.32 1262.75 1070.59 1256.09 1063.12 1252.35C1055.92 1248.62 1047.52 1246.62 1037.92 1246.35C1021.66 1246.35 1008.99 1252.09 999.922 1263.55C990.855 1275.02 986.322 1291.15 986.322 1311.95H969.922C969.922 1290.89 972.989 1272.89 979.122 1257.95C985.255 1242.75 994.055 1231.15 1005.52 1223.15C1017.26 1215.15 1031.26 1211.15 1047.52 1211.15C1071.52 1211.15 1090.32 1218.62 1103.92 1233.55C1117.79 1248.22 1124.72 1270.89 1124.72 1301.55L1086.72 1313.55ZM1249.74 1420.75C1229.74 1420.75 1214.27 1415.69 1203.34 1405.55C1192.41 1395.15 1186.94 1380.35 1186.94 1361.15V1153.55H1224.94V1355.55C1224.94 1365.42 1227.34 1373.02 1232.14 1378.35C1237.21 1383.42 1244.41 1385.95 1253.74 1385.95C1256.41 1385.95 1259.34 1385.42 1262.54 1384.35C1265.74 1383.29 1269.61 1381.15 1274.14 1377.95L1288.54 1407.55C1281.61 1412.09 1274.94 1415.42 1268.54 1417.55C1262.41 1419.69 1256.14 1420.75 1249.74 1420.75ZM1152.94 1248.75V1215.95H1281.74V1248.75H1152.94Z" fill="#1A83BD"/>
</g>
<defs>
<clipPath id="clip0_128_95">
<rect width="1330.95" height="1330.95" fill="white" transform="translate(0.324219)"/>
</clipPath>
</defs>
</svg>
