<svg width="1000" height="1000" viewBox="0 0 1000 1000" fill="none" xmlns="http://www.w3.org/2000/svg">
<rect width="1000" height="1000" fill="black"/>
<path fill-rule="evenodd" clip-rule="evenodd" d="M300.026 552.867L220.662 527.08L237.737 474.522L334.177 505.854L343.061 493.631L249.352 438.78L268.398 380.163L376.41 390.763V375.612L280.049 344.301L297.046 291.993L376.41 317.78V234.333H431.672V335.735L446.038 340.4L469.251 234.333H530.884L554.18 340.333L568.593 335.652V234.333H623.595V317.78L702.954 291.993L720.029 344.551L623.595 375.882V390.992L731.643 380.288L750.69 438.905L657.08 493.818L665.984 506.078L762.341 474.767L779.338 527.08L699.979 552.867L749.026 620.373L704.317 652.854L644.717 570.822L630.346 575.487L673.916 674.943L624.053 711.169L542.899 639.113L533.995 651.366L593.548 733.336L549.047 765.667L500 698.156L450.953 765.667L406.244 733.181L465.849 651.148L456.966 638.925L375.843 711.096L325.98 674.865L369.436 575.419L355.028 570.738L295.475 652.703L250.974 620.373L300.026 552.867ZM464.814 439.669L320.716 425.33L318.022 433.615L443.271 506.452L385.101 639.066L392.149 644.189L500.125 547.577L608.272 643.882L615.32 638.759L556.807 506.218L681.816 433.121L679.122 424.835L534.988 439.524L504.098 298.047H495.386L464.814 439.669Z" fill="#FF4500"/>
</svg>
