<svg width="1500" height="1000" viewBox="0 0 1500 1000" fill="none" xmlns="http://www.w3.org/2000/svg">
<g clip-path="url(#clip0_1979_75)">
<rect width="1500" height="1000" fill="#FF4500"/>
<path d="M1340.79 1224.29V932.686H1432.39V1047.09L1426.39 1041.09H1564.79L1558.79 1047.09V932.686H1650.39V1224.29H1558.79V1106.29L1564.79 1112.29H1426.39L1432.39 1106.29V1224.29H1340.79Z" fill="black"/>
<path d="M1152.67 1228.29C1125.47 1228.29 1101.34 1224.82 1080.27 1217.89C1059.21 1210.69 1041.34 1200.55 1026.67 1187.49C1012.27 1174.15 1001.34 1158.29 993.875 1139.89C986.408 1121.49 982.675 1100.95 982.675 1078.29C982.675 1055.62 986.408 1035.09 993.875 1016.69C1001.34 998.286 1012.27 982.552 1026.67 969.485C1041.34 956.419 1059.21 946.419 1080.27 939.485C1101.34 932.285 1125.47 928.686 1152.67 928.686C1183.61 928.686 1210.41 933.219 1233.07 942.286C1255.74 951.352 1273.74 963.885 1287.07 979.885C1300.41 995.885 1308.27 1014.55 1310.67 1035.89H1218.67C1216.54 1028.69 1212.27 1022.42 1205.87 1017.09C1199.47 1011.75 1191.74 1007.62 1182.67 1004.69C1173.61 1001.75 1163.61 1000.29 1152.67 1000.29C1137.21 1000.29 1123.61 1003.09 1111.87 1008.69C1100.14 1014.02 1091.07 1022.42 1084.67 1033.89C1078.27 1045.35 1075.07 1060.15 1075.07 1078.29C1075.07 1091.89 1076.94 1103.62 1080.67 1113.49C1084.41 1123.09 1089.61 1131.09 1096.27 1137.49C1103.21 1143.89 1111.34 1148.69 1120.67 1151.89C1130.27 1154.82 1140.94 1156.29 1152.67 1156.29C1163.34 1156.29 1173.34 1154.82 1182.67 1151.89C1192.01 1148.95 1199.87 1144.82 1206.27 1139.49C1212.94 1134.15 1217.34 1127.89 1219.47 1120.69H1310.67C1308.27 1142.29 1299.87 1161.22 1285.47 1177.49C1271.07 1193.49 1252.41 1206.02 1229.47 1215.09C1206.54 1223.89 1180.94 1228.29 1152.67 1228.29Z" fill="black"/>
<path d="M823.56 1228.29C790.226 1228.29 762.626 1224.15 740.76 1215.89C719.16 1207.35 703.026 1195.75 692.36 1181.09C681.96 1166.15 676.76 1149.22 676.76 1130.29H771.96C772.226 1137.22 774.36 1143.49 778.36 1149.09C782.36 1154.42 788.36 1158.69 796.36 1161.89C804.626 1164.82 814.893 1166.29 827.16 1166.29C842.093 1166.29 853.426 1164.15 861.16 1159.89C869.16 1155.62 873.16 1149.49 873.16 1141.49C873.16 1136.69 872.226 1132.82 870.36 1129.89C868.76 1126.95 865.693 1124.69 861.16 1123.09C856.893 1121.22 850.893 1119.75 843.16 1118.69C835.693 1117.35 825.96 1116.02 813.96 1114.69C791.293 1112.02 771.693 1108.55 755.16 1104.29C738.893 1099.75 725.426 1094.02 714.76 1087.09C704.36 1080.15 696.626 1071.62 691.56 1061.49C686.493 1051.09 683.96 1038.82 683.96 1024.69C683.96 1004.15 689.426 986.819 700.36 972.686C711.56 958.552 727.56 947.752 748.36 940.286C769.16 932.819 794.093 929.085 823.16 929.085C848.76 929.085 871.293 932.552 890.76 939.485C910.226 946.152 925.693 956.152 937.16 969.485C948.626 982.819 955.293 999.219 957.16 1018.69H864.76C863.693 1011.75 861.16 1006.29 857.16 1002.29C853.16 998.019 847.96 994.952 841.56 993.086C835.16 991.219 827.826 990.286 819.56 990.286C810.76 990.286 803.16 991.219 796.76 993.086C790.626 994.952 785.96 997.752 782.76 1001.49C779.56 1004.95 777.96 1009.09 777.96 1013.89C777.96 1019.49 779.426 1023.89 782.36 1027.09C785.293 1030.02 791.026 1032.42 799.56 1034.29C808.36 1035.89 821.293 1037.62 838.36 1039.49C861.56 1042.15 881.293 1045.62 897.56 1049.89C914.093 1053.89 927.426 1059.49 937.56 1066.69C947.96 1073.62 955.56 1082.55 960.36 1093.49C965.16 1104.42 967.56 1117.89 967.56 1133.89C967.56 1153.62 961.96 1170.55 950.76 1184.69C939.56 1198.82 923.293 1209.62 901.96 1217.09C880.626 1224.55 854.493 1228.29 823.56 1228.29Z" fill="black"/>
<path d="M403.287 1224.29V932.686H658.487V1004.29H476.887L494.887 986.286V1062.69L476.887 1044.69H638.487V1111.49H476.887L494.887 1093.49V1170.69L476.887 1152.69H659.687V1224.29H403.287Z" fill="black"/>
<path d="M208.45 1228.29C182.316 1228.29 158.85 1224.82 138.05 1217.89C117.516 1210.69 100.05 1200.55 85.6498 1187.49C71.5165 1174.15 60.7165 1158.29 53.2498 1139.89C45.7831 1121.49 42.0498 1100.95 42.0498 1078.29C42.0498 1055.62 45.7831 1035.09 53.2498 1016.69C60.9831 998.286 72.0498 982.552 86.4498 969.485C101.116 956.419 118.983 946.419 140.05 939.485C161.116 932.285 185.116 928.686 212.05 928.686C242.983 928.686 269.783 933.219 292.45 942.286C315.116 951.086 333.116 963.485 346.45 979.485C359.783 995.219 367.65 1013.75 370.05 1035.09H277.65C275.25 1027.35 270.85 1020.95 264.45 1015.89C258.316 1010.55 250.716 1006.69 241.65 1004.29C232.85 1001.62 222.983 1000.29 212.05 1000.29C194.45 1000.29 179.916 1003.49 168.45 1009.89C156.983 1016.02 148.45 1024.95 142.85 1036.69C137.25 1048.15 134.45 1062.02 134.45 1078.29C134.45 1091.62 136.183 1103.22 139.65 1113.09C143.116 1122.95 148.183 1131.09 154.85 1137.49C161.516 1143.89 169.383 1148.69 178.45 1151.89C187.783 1155.09 198.183 1156.69 209.65 1156.69C226.716 1156.69 240.583 1154.42 251.25 1149.89C261.916 1145.35 269.783 1139.09 274.85 1131.09C279.916 1122.82 282.45 1113.35 282.45 1102.69V1095.49L304.85 1119.49H205.25V1062.29H372.85V1091.89C372.85 1114.82 368.45 1134.82 359.65 1151.89C351.117 1168.95 339.25 1183.22 324.05 1194.69C308.85 1205.89 291.25 1214.29 271.25 1219.89C251.516 1225.49 230.583 1228.29 208.45 1228.29Z" fill="black"/>
<path d="M1230.24 837.286V545.686H1340.64L1453.44 717.686H1456.64L1454.24 635.686V545.686H1545.04V837.286H1436.24L1323.44 667.686H1319.84L1322.64 746.886V837.286H1230.24Z" fill="black"/>
<path d="M941.568 837.286V545.686H1196.77V617.286H1015.17L1033.17 599.286V675.686L1015.17 657.686H1176.77V724.486H1015.17L1033.17 706.486V783.686L1015.17 765.686H1197.97V837.286H941.568Z" fill="black"/>
<path d="M746.731 841.286C720.598 841.286 697.131 837.819 676.331 830.886C655.798 823.686 638.331 813.552 623.931 800.486C609.798 787.152 598.998 771.286 591.531 752.886C584.064 734.486 580.331 713.952 580.331 691.286C580.331 668.619 584.064 648.086 591.531 629.686C599.264 611.286 610.331 595.552 624.731 582.486C639.398 569.419 657.264 559.419 678.331 552.486C699.398 545.286 723.398 541.686 750.331 541.686C781.264 541.686 808.064 546.219 830.731 555.286C853.398 564.086 871.398 576.486 884.731 592.486C898.064 608.219 905.931 626.752 908.331 648.086H815.931C813.531 640.352 809.131 633.952 802.731 628.886C796.598 623.552 788.998 619.686 779.931 617.286C771.131 614.619 761.264 613.286 750.331 613.286C732.731 613.286 718.198 616.486 706.731 622.886C695.264 629.019 686.731 637.952 681.131 649.686C675.531 661.152 672.731 675.019 672.731 691.286C672.731 704.619 674.464 716.219 677.931 726.086C681.398 735.952 686.464 744.086 693.131 750.486C699.798 756.886 707.664 761.686 716.731 764.886C726.064 768.086 736.464 769.686 747.931 769.686C764.998 769.686 778.864 767.419 789.531 762.886C800.198 758.352 808.064 752.086 813.131 744.086C818.198 735.819 820.731 726.352 820.731 715.686V708.486L843.131 732.486H743.531V675.286H911.131V704.886C911.131 727.819 906.731 747.819 897.931 764.886C889.398 781.952 877.531 796.219 862.331 807.686C847.131 818.886 829.531 827.286 809.531 832.886C789.798 838.486 768.864 841.286 746.731 841.286Z" fill="black"/>
<path d="M304.459 837.286V545.686H559.659V617.286H378.059L396.059 599.286V675.686L378.059 657.686H539.659V724.486H378.059L396.059 706.486V783.686L378.059 765.686H560.859V837.286H304.459Z" fill="black"/>
<path d="M54.8496 837.286V545.686H146.45V780.886L128.45 762.886H278.45V837.286H54.8496Z" fill="black"/>
<path d="M1462.66 450.286V158.686H1717.86V230.286H1536.26L1554.26 212.286V288.686L1536.26 270.686H1697.86V337.486H1536.26L1554.26 319.486V396.686L1536.26 378.686H1719.06V450.286H1462.66Z" fill="black"/>
<path d="M1129.07 450.286V158.686H1276.27C1311.47 158.686 1340.54 164.819 1363.47 177.086C1386.67 189.086 1403.87 206.019 1415.07 227.886C1426.54 249.752 1432.27 275.352 1432.27 304.686C1432.27 328.952 1428.54 350.286 1421.07 368.686C1413.87 386.819 1403.47 402.019 1389.87 414.286C1376.27 426.286 1359.87 435.352 1340.67 441.486C1321.47 447.352 1300 450.286 1276.27 450.286H1129.07ZM1220.27 380.286H1257.47C1272.67 380.286 1285.47 378.686 1295.87 375.486C1306.54 372.019 1315.07 366.952 1321.47 360.286C1327.87 353.619 1332.54 345.486 1335.47 335.886C1338.4 326.286 1339.87 315.352 1339.87 303.086C1339.87 283.619 1336.4 268.552 1329.47 257.886C1322.54 247.219 1312.8 239.752 1300.27 235.486C1288 230.952 1273.74 228.686 1257.47 228.686H1220.27V380.286Z" fill="black"/>
<path d="M803.287 450.286V158.686H980.887C996.887 158.686 1011.95 160.152 1026.09 163.086C1040.49 166.019 1053.15 170.952 1064.09 177.886C1075.02 184.552 1083.55 193.752 1089.69 205.486C1096.09 216.952 1099.29 231.352 1099.29 248.686C1099.29 265.752 1094.49 280.952 1084.89 294.286C1075.55 307.352 1062.49 315.886 1045.69 319.886V322.686C1060.89 325.352 1072.35 331.352 1080.09 340.686C1087.82 349.752 1091.69 362.686 1091.69 379.486V413.886C1091.69 419.752 1091.82 425.752 1092.09 431.886C1092.62 438.019 1094.22 444.152 1096.89 450.286H1004.89C1003.29 446.819 1002.09 442.152 1001.29 436.286C1000.49 430.419 1000.09 423.219 1000.09 414.686V391.886C1000.09 384.952 999.02 379.086 996.887 374.286C994.754 369.219 991.02 365.352 985.687 362.686C980.354 359.752 972.754 358.286 962.887 358.286H894.887V450.286H803.287ZM894.887 293.486H962.087C979.42 293.486 991.154 290.286 997.287 283.886C1003.42 277.486 1006.49 269.086 1006.49 258.686C1006.49 250.419 1004.62 244.019 1000.89 239.486C997.154 234.952 991.954 231.752 985.287 229.886C978.62 228.019 970.887 227.086 962.087 227.086H894.887V293.486Z" fill="black"/>
<path d="M514.615 450.286V158.686H769.815V230.286H588.215L606.215 212.286V288.686L588.215 270.686H749.815V337.486H588.215L606.215 319.486V396.686L588.215 378.686H771.015V450.286H514.615Z" fill="black"/>
<path d="M108.05 450.286L31.25 158.686H131.65L158.85 293.486L170.45 361.486H174.85L216.45 158.686H314.05L357.65 362.286H361.25L372.85 290.286L397.65 158.686H494.85L422.05 450.286H304.85L265.25 272.686H262.05L225.65 450.286H108.05Z" fill="black"/>
<path d="M831.021 63.2854V-228.315H1008.62C1024.62 -228.315 1039.69 -226.848 1053.82 -223.915C1068.22 -220.981 1080.89 -216.048 1091.82 -209.115C1102.75 -202.448 1111.29 -193.248 1117.42 -181.515C1123.82 -170.048 1127.02 -155.648 1127.02 -138.315C1127.02 -121.248 1122.22 -106.048 1112.62 -92.7146C1103.29 -79.6479 1090.22 -71.1146 1073.42 -67.1146V-64.3146C1088.62 -61.6479 1100.09 -55.6479 1107.82 -46.3146C1115.55 -37.2479 1119.42 -24.3146 1119.42 -7.51456V26.8854C1119.42 32.7521 1119.55 38.7521 1119.82 44.8854C1120.35 51.0188 1121.95 57.1521 1124.62 63.2854H1032.62C1031.02 59.8188 1029.82 55.1521 1029.02 49.2854C1028.22 43.4188 1027.82 36.2188 1027.82 27.6854V4.88544C1027.82 -2.04789 1026.75 -7.91457 1024.62 -12.7146C1022.49 -17.7812 1018.75 -21.6479 1013.42 -24.3146C1008.09 -27.2479 1000.49 -28.7146 990.622 -28.7146H922.622V63.2854H831.021ZM922.622 -93.5146H989.822C1007.15 -93.5146 1018.89 -96.7146 1025.02 -103.115C1031.15 -109.515 1034.22 -117.915 1034.22 -128.315C1034.22 -136.581 1032.35 -142.981 1028.62 -147.515C1024.89 -152.048 1019.69 -155.248 1013.02 -157.115C1006.35 -158.981 998.622 -159.915 989.822 -159.915H922.622V-93.5146Z" fill="black"/>
<path d="M542.35 63.2854V-228.315H797.55V-156.715H615.95L633.95 -174.715V-98.3146L615.95 -116.315H777.55V-49.5146H615.95L633.95 -67.5146V9.68542L615.95 -8.31458H798.75V63.2854H542.35Z" fill="black"/>
<path d="M407.584 63.2854V-228.315H499.184V63.2854H407.584Z" fill="black"/>
<path d="M54.8496 63.2854V-228.315H146.45V-113.915L140.45 -119.915H278.85L272.85 -113.915V-228.315H364.45V63.2854H272.85V-54.7146L278.85 -48.7146H140.45L146.45 -54.7146V63.2854H54.8496Z" fill="black"/>
</g>
<defs>
<clipPath id="clip0_1979_75">
<rect width="1500" height="1000" fill="white"/>
</clipPath>
</defs>
</svg>
