<svg width="1500" height="1000" viewBox="0 0 1500 1000" fill="none" xmlns="http://www.w3.org/2000/svg">
<rect width="1500" height="1000" fill="black"/>
<path d="M1063.26 628.5V555.6H1090.86L1119.06 598.6H1119.86L1119.26 578.1V555.6H1141.96V628.5H1114.76L1086.56 586.1H1085.66L1086.36 605.9V628.5H1063.26Z" fill="#FF4500"/>
<path d="M991.094 628.5V555.6H1054.89V573.5H1009.49L1013.99 569V588.1L1009.49 583.6H1049.89V600.3H1009.49L1013.99 595.8V615.1L1009.49 610.6H1055.19V628.5H991.094Z" fill="#FF4500"/>
<path d="M923.125 628.5V555.6H984.125V573.5H944.525L946.025 572V587.4L944.525 585.9H980.125V602.8H944.525L946.025 601.3V628.5H923.125Z" fill="#FF4500"/>
<path d="M855.156 628.5V555.6H916.156V573.5H876.556L878.056 572V587.4L876.556 585.9H912.156V602.8H876.556L878.056 601.3V628.5H855.156Z" fill="#FF4500"/>
<path d="M761.854 628.5L791.054 555.6H820.854L850.254 628.5H825.354L820.953 616.1H790.854L786.554 628.5H761.854ZM796.953 599.2H814.953L809.054 582.1L806.254 573.8H805.554L802.953 581.9L796.953 599.2Z" fill="#FF4500"/>
<path d="M679.57 628.5V555.6H702.47V584.2L700.97 582.7H735.57L734.07 584.2V555.6H756.97V628.5H734.07V599L735.57 600.5H700.97L702.47 599V628.5H679.57Z" fill="#FF4500"/>
<path d="M632.542 629.5C625.742 629.5 619.709 628.633 614.442 626.9C609.175 625.1 604.709 622.567 601.042 619.3C597.442 615.967 594.709 612 592.842 607.4C590.975 602.8 590.042 597.667 590.042 592C590.042 586.333 590.975 581.2 592.842 576.6C594.709 572 597.442 568.067 601.042 564.8C604.709 561.533 609.175 559.033 614.442 557.3C619.709 555.5 625.742 554.6 632.542 554.6C640.275 554.6 646.975 555.733 652.642 558C658.309 560.267 662.809 563.4 666.142 567.4C669.475 571.4 671.442 576.067 672.042 581.4H649.042C648.509 579.6 647.442 578.033 645.842 576.7C644.242 575.367 642.309 574.333 640.042 573.6C637.775 572.867 635.275 572.5 632.542 572.5C628.675 572.5 625.275 573.2 622.342 574.6C619.409 575.933 617.142 578.033 615.542 580.9C613.942 583.767 613.142 587.467 613.142 592C613.142 595.4 613.609 598.333 614.542 600.8C615.475 603.2 616.775 605.2 618.442 606.8C620.175 608.4 622.209 609.6 624.542 610.4C626.942 611.133 629.609 611.5 632.542 611.5C635.209 611.5 637.709 611.133 640.042 610.4C642.375 609.667 644.342 608.633 645.942 607.3C647.609 605.967 648.709 604.4 649.242 602.6H672.042C671.442 608 669.342 612.733 665.742 616.8C662.142 620.8 657.475 623.933 651.742 626.2C646.009 628.4 639.609 629.5 632.542 629.5Z" fill="#FF4500"/>
<path d="M550.262 629.5C541.929 629.5 535.029 628.467 529.562 626.4C524.162 624.267 520.129 621.367 517.462 617.7C514.862 613.967 513.562 609.733 513.562 605H537.362C537.429 606.733 537.962 608.3 538.962 609.7C539.962 611.033 541.462 612.1 543.462 612.9C545.529 613.633 548.096 614 551.163 614C554.896 614 557.729 613.467 559.663 612.4C561.663 611.333 562.663 609.8 562.663 607.8C562.663 606.6 562.429 605.633 561.962 604.9C561.562 604.167 560.796 603.6 559.663 603.2C558.596 602.733 557.096 602.367 555.163 602.1C553.296 601.767 550.862 601.433 547.862 601.1C542.196 600.433 537.296 599.567 533.163 598.5C529.096 597.367 525.729 595.933 523.062 594.2C520.462 592.467 518.529 590.333 517.262 587.8C515.996 585.2 515.362 582.133 515.362 578.6C515.362 573.467 516.729 569.133 519.462 565.6C522.262 562.067 526.262 559.367 531.462 557.5C536.662 555.633 542.896 554.7 550.163 554.7C556.563 554.7 562.196 555.567 567.062 557.3C571.929 558.967 575.796 561.467 578.663 564.8C581.529 568.133 583.196 572.233 583.663 577.1H560.562C560.296 575.367 559.663 574 558.663 573C557.663 571.933 556.363 571.167 554.763 570.7C553.163 570.233 551.329 570 549.262 570C547.062 570 545.162 570.233 543.562 570.7C542.029 571.167 540.862 571.867 540.062 572.8C539.263 573.667 538.862 574.7 538.862 575.9C538.862 577.3 539.229 578.4 539.962 579.2C540.696 579.933 542.129 580.533 544.262 581C546.462 581.4 549.696 581.833 553.962 582.3C559.762 582.967 564.696 583.833 568.762 584.9C572.896 585.9 576.229 587.3 578.763 589.1C581.363 590.833 583.262 593.067 584.462 595.8C585.662 598.533 586.262 601.9 586.262 605.9C586.262 610.833 584.862 615.067 582.062 618.6C579.263 622.133 575.196 624.833 569.862 626.7C564.529 628.567 557.996 629.5 550.262 629.5Z" fill="#FF4500"/>
<path d="M445.195 628.5V555.6H508.995V573.5H463.595L468.095 569V588.1L463.595 583.6H503.995V600.3H463.595L468.095 595.8V615.1L463.595 610.6H509.295V628.5H445.195Z" fill="#FF4500"/>
<path d="M396.486 629.5C389.952 629.5 384.086 628.633 378.886 626.9C373.752 625.1 369.386 622.567 365.786 619.3C362.252 615.967 359.552 612 357.686 607.4C355.819 602.8 354.886 597.667 354.886 592C354.886 586.333 355.819 581.2 357.686 576.6C359.619 572 362.386 568.067 365.986 564.8C369.652 561.533 374.119 559.033 379.386 557.3C384.652 555.5 390.652 554.6 397.386 554.6C405.119 554.6 411.819 555.733 417.486 558C423.152 560.2 427.652 563.3 430.986 567.3C434.319 571.233 436.286 575.867 436.886 581.2H413.786C413.186 579.267 412.086 577.667 410.486 576.4C408.952 575.067 407.052 574.1 404.786 573.5C402.586 572.833 400.119 572.5 397.386 572.5C392.986 572.5 389.352 573.3 386.486 574.9C383.619 576.433 381.486 578.667 380.086 581.6C378.686 584.467 377.986 587.933 377.986 592C377.986 595.333 378.419 598.233 379.286 600.7C380.152 603.167 381.419 605.2 383.086 606.8C384.752 608.4 386.719 609.6 388.986 610.4C391.319 611.2 393.919 611.6 396.786 611.6C401.052 611.6 404.519 611.033 407.186 609.9C409.852 608.767 411.819 607.2 413.086 605.2C414.352 603.133 414.986 600.767 414.986 598.1V596.3L420.586 602.3H395.686V588H437.586V595.4C437.586 601.133 436.486 606.133 434.286 610.4C432.152 614.667 429.186 618.233 425.386 621.1C421.586 623.9 417.186 626 412.186 627.4C407.252 628.8 402.019 629.5 396.486 629.5Z" fill="#FF4500"/>
<path d="M980.107 531.5V458.6H1007.71L1035.91 501.6H1036.71L1036.11 481.1V458.6H1058.81V531.5H1031.61L1003.41 489.1H1002.51L1003.21 508.9V531.5H980.107Z" fill="#FF4500"/>
<path d="M907.939 531.5V458.6H971.739V476.5H926.339L930.839 472V491.1L926.339 486.6H966.739V503.3H926.339L930.839 498.8V518.1L926.339 513.6H972.039V531.5H907.939Z" fill="#FF4500"/>
<path d="M824.541 531.5V458.6H861.341C870.141 458.6 877.408 460.133 883.141 463.2C888.941 466.2 893.241 470.433 896.041 475.9C898.908 481.367 900.341 487.767 900.341 495.1C900.341 501.167 899.408 506.5 897.541 511.1C895.741 515.633 893.141 519.433 889.741 522.5C886.341 525.5 882.241 527.767 877.441 529.3C872.641 530.767 867.274 531.5 861.341 531.5H824.541ZM847.341 514H856.641C860.441 514 863.641 513.6 866.241 512.8C868.908 511.933 871.041 510.667 872.641 509C874.241 507.333 875.408 505.3 876.141 502.9C876.874 500.5 877.241 497.767 877.241 494.7C877.241 489.833 876.374 486.067 874.641 483.4C872.908 480.733 870.474 478.867 867.341 477.8C864.274 476.667 860.708 476.1 856.641 476.1H847.341V514Z" fill="#FF4500"/>
<path d="M735.088 531.5V458.6H762.688L790.888 501.6H791.688L791.088 481.1V458.6H813.788V531.5H786.588L758.388 489.1H757.488L758.188 508.9V531.5H735.088Z" fill="#FF4500"/>
<path d="M662.92 531.5V458.6H726.72V476.5H681.32L685.82 472V491.1L681.32 486.6H721.72V503.3H681.32L685.82 498.8V518.1L681.32 513.6H727.02V531.5H662.92Z" fill="#FF4500"/>
<path d="M614.21 532.5C607.677 532.5 601.81 531.633 596.61 529.9C591.477 528.1 587.11 525.567 583.51 522.3C579.977 518.967 577.277 515 575.41 510.4C573.544 505.8 572.61 500.667 572.61 495C572.61 489.333 573.544 484.2 575.41 479.6C577.344 475 580.11 471.067 583.71 467.8C587.377 464.533 591.844 462.033 597.11 460.3C602.377 458.5 608.377 457.6 615.11 457.6C622.844 457.6 629.544 458.733 635.21 461C640.877 463.2 645.377 466.3 648.71 470.3C652.044 474.233 654.01 478.867 654.61 484.2H631.51C630.91 482.267 629.81 480.667 628.21 479.4C626.677 478.067 624.777 477.1 622.51 476.5C620.31 475.833 617.844 475.5 615.11 475.5C610.71 475.5 607.077 476.3 604.21 477.9C601.344 479.433 599.21 481.667 597.81 484.6C596.41 487.467 595.71 490.933 595.71 495C595.71 498.333 596.144 501.233 597.01 503.7C597.877 506.167 599.144 508.2 600.81 509.8C602.477 511.4 604.444 512.6 606.71 513.4C609.044 514.2 611.644 514.6 614.51 514.6C618.777 514.6 622.244 514.033 624.91 512.9C627.577 511.767 629.544 510.2 630.81 508.2C632.077 506.133 632.71 503.767 632.71 501.1V499.3L638.31 505.3H613.41V491H655.31V498.4C655.31 504.133 654.21 509.133 652.01 513.4C649.877 517.667 646.91 521.233 643.11 524.1C639.31 526.9 634.91 529 629.91 530.4C624.977 531.8 619.744 532.5 614.21 532.5Z" fill="#FF4500"/>
<path d="M503.643 531.5V458.6H567.443V476.5H522.043L526.543 472V491.1L522.043 486.6H562.443V503.3H522.043L526.543 498.8V518.1L522.043 513.6H567.743V531.5H503.643Z" fill="#FF4500"/>
<path d="M441.24 531.5V458.6H464.14V517.4L459.64 512.9H497.14V531.5H441.24Z" fill="#FF4500"/>
<path d="M1070.63 434.5V361.6H1098.23L1126.43 404.6H1127.23L1126.63 384.1V361.6H1149.33V434.5H1122.13L1093.93 392.1H1093.03L1093.73 411.9V434.5H1070.63Z" fill="#FF4500"/>
<path d="M998.467 434.5V361.6H1062.27V379.5H1016.87L1021.37 375V394.1L1016.87 389.6H1057.27V406.3H1016.87L1021.37 401.8V421.1L1016.87 416.6H1062.57V434.5H998.467Z" fill="#FF4500"/>
<path d="M915.068 434.5V361.6H951.868C960.668 361.6 967.935 363.133 973.668 366.2C979.468 369.2 983.768 373.433 986.568 378.9C989.435 384.367 990.868 390.767 990.868 398.1C990.868 404.167 989.935 409.5 988.068 414.1C986.268 418.633 983.668 422.433 980.268 425.5C976.868 428.5 972.768 430.767 967.968 432.3C963.168 433.767 957.802 434.5 951.868 434.5H915.068ZM937.868 417H947.168C950.968 417 954.168 416.6 956.768 415.8C959.435 414.933 961.568 413.667 963.168 412C964.768 410.333 965.935 408.3 966.668 405.9C967.402 403.5 967.768 400.767 967.768 397.7C967.768 392.833 966.902 389.067 965.168 386.4C963.435 383.733 961.002 381.867 957.868 380.8C954.802 379.667 951.235 379.1 947.168 379.1H937.868V417Z" fill="#FF4500"/>
<path d="M833.623 434.5V361.6H878.023C882.023 361.6 885.79 361.967 889.323 362.7C892.923 363.433 896.09 364.667 898.823 366.4C901.556 368.067 903.69 370.367 905.223 373.3C906.823 376.167 907.623 379.767 907.623 384.1C907.623 388.367 906.423 392.167 904.023 395.5C901.69 398.767 898.423 400.9 894.223 401.9V402.6C898.023 403.267 900.89 404.767 902.823 407.1C904.756 409.367 905.723 412.6 905.723 416.8V425.4C905.723 426.867 905.756 428.367 905.823 429.9C905.956 431.433 906.356 432.967 907.023 434.5H884.023C883.623 433.633 883.323 432.467 883.123 431C882.923 429.533 882.823 427.733 882.823 425.6V419.9C882.823 418.167 882.556 416.7 882.023 415.5C881.49 414.233 880.556 413.267 879.223 412.6C877.89 411.867 875.99 411.5 873.523 411.5H856.523V434.5H833.623ZM856.523 395.3H873.323C877.656 395.3 880.59 394.5 882.123 392.9C883.656 391.3 884.423 389.2 884.423 386.6C884.423 384.533 883.956 382.933 883.023 381.8C882.09 380.667 880.79 379.867 879.123 379.4C877.456 378.933 875.523 378.7 873.323 378.7H856.523V395.3Z" fill="#FF4500"/>
<path d="M761.455 434.5V361.6H825.255V379.5H779.855L784.355 375V394.1L779.855 389.6H820.255V406.3H779.855L784.355 401.8V421.1L779.855 416.6H825.555V434.5H761.455Z" fill="#FF4500"/>
<path d="M659.813 434.5L640.613 361.6H665.713L672.513 395.3L675.413 412.3H676.513L686.913 361.6H711.313L722.213 412.5H723.113L726.013 394.5L732.213 361.6H756.513L738.313 434.5H709.013L699.113 390.1H698.313L689.213 434.5H659.813Z" fill="#FF4500"/>
<path d="M544.756 434.5V361.6H589.156C593.156 361.6 596.923 361.967 600.456 362.7C604.056 363.433 607.223 364.667 609.956 366.4C612.689 368.067 614.823 370.367 616.356 373.3C617.956 376.167 618.756 379.767 618.756 384.1C618.756 388.367 617.556 392.167 615.156 395.5C612.823 398.767 609.556 400.9 605.356 401.9V402.6C609.156 403.267 612.023 404.767 613.956 407.1C615.889 409.367 616.856 412.6 616.856 416.8V425.4C616.856 426.867 616.889 428.367 616.956 429.9C617.089 431.433 617.489 432.967 618.156 434.5H595.156C594.756 433.633 594.456 432.467 594.256 431C594.056 429.533 593.956 427.733 593.956 425.6V419.9C593.956 418.167 593.689 416.7 593.156 415.5C592.623 414.233 591.689 413.267 590.356 412.6C589.023 411.867 587.123 411.5 584.656 411.5H567.656V434.5H544.756ZM567.656 395.3H584.456C588.789 395.3 591.723 394.5 593.256 392.9C594.789 391.3 595.556 389.2 595.556 386.6C595.556 384.533 595.089 382.933 594.156 381.8C593.223 380.667 591.923 379.867 590.256 379.4C588.589 378.933 586.656 378.7 584.456 378.7H567.656V395.3Z" fill="#FF4500"/>
<path d="M472.588 434.5V361.6H536.388V379.5H490.988L495.488 375V394.1L490.988 389.6H531.388V406.3H490.988L495.488 401.8V421.1L490.988 416.6H536.688V434.5H472.588Z" fill="#FF4500"/>
<path d="M438.896 434.5V361.6H461.796V434.5H438.896Z" fill="#FF4500"/>
<path d="M350.713 434.5V361.6H373.613V390.2L372.113 388.7H406.713L405.213 390.2V361.6H428.113V434.5H405.213V405L406.713 406.5H372.113L373.613 405V434.5H350.713Z" fill="#FF4500"/>
</svg>
