<svg width="24" height="25" viewBox="0 0 24 25" fill="none" xmlns="http://www.w3.org/2000/svg">
<path fill-rule="evenodd" clip-rule="evenodd" d="M14.2841 7.25678L15.2452 7.4929C17.8002 8.12067 19.6984 9.688 20.8192 11.9763C21.929 14.2422 22.257 17.1691 21.8011 20.5296L20.3543 20.3333C20.7851 17.1583 20.4521 14.5458 19.5081 12.6185C18.7025 10.9739 17.4381 9.79522 15.7368 9.16712C15.4146 11.0582 13.9684 12.6107 12.0627 12.6107C10.1586 12.6107 8.71277 11.0564 8.39149 9.1645C6.65803 9.79553 5.31504 10.9832 4.47108 12.6303C3.48915 14.5467 3.1561 17.1419 3.76765 20.2923L2.33442 20.5706C1.67732 17.1854 2.00519 14.2413 3.17173 11.9646C4.34491 9.67487 6.3392 8.11767 8.88018 7.49293L9.78446 7.27059V8.36883C9.78446 10.0135 10.9072 11.1507 12.0627 11.1507C13.2219 11.1507 14.3443 10.0135 14.3443 8.36948C14.3443 8.31156 14.344 8.27467 14.3422 8.24468L14.2841 7.25678ZM12.0644 14.4774C11.4894 13.8783 10.8423 13.5346 10.109 13.3539C9.30454 13.1557 8.39569 13.1601 7.46613 13.1646C7.32748 13.1652 7.18837 13.1659 7.04908 13.1659H6.31908V20.4314H7.77907V14.6243C8.58826 14.6233 9.20984 14.636 9.75973 14.7715C10.3892 14.9266 10.9233 15.248 11.4433 16.0382L11.6596 16.3669H12.4691L12.6854 16.0382C13.2054 15.248 13.7395 14.9266 14.369 14.7715C14.9189 14.636 15.5405 14.6233 16.3497 14.6243V20.4314H17.8097V13.1659H17.0797C16.9404 13.1659 16.8013 13.1652 16.6626 13.1646C15.7331 13.1601 14.8242 13.1557 14.0197 13.3539C13.2864 13.5346 12.6393 13.8783 12.0644 14.4774Z" fill="black"/>
<path fill-rule="evenodd" clip-rule="evenodd" d="M9.91682 7.28987C10.5819 7.19046 11.2969 7.13941 12.0661 7.13941C12.837 7.13941 13.5526 7.1904 14.217 7.28978C14.1072 6.90208 13.931 6.56919 13.7064 6.30708C13.3295 5.86743 12.7857 5.58792 12.0661 5.58792C11.3486 5.58792 10.8054 5.8671 10.4283 6.30708C10.2036 6.56926 10.0272 6.90219 9.91682 7.28987ZM9.31974 5.35698C9.97684 4.5903 10.9264 4.12793 12.0661 4.12793C13.2069 4.12793 14.1575 4.58997 14.8149 5.35698C15.4623 6.11231 15.7932 7.12292 15.8043 8.19384L15.8141 9.13629L14.8992 8.91008C14.0916 8.71044 13.1552 8.59939 12.0661 8.59939C10.9805 8.59939 10.0438 8.71039 9.23246 8.91023L8.31648 9.13586L8.32792 8.19257C8.34091 7.12205 8.67268 6.11195 9.31974 5.35698Z" fill="black"/>
<path fill-rule="evenodd" clip-rule="evenodd" d="M14.2841 7.25678L15.2452 7.4929C17.8002 8.12067 19.6984 9.688 20.8192 11.9763C21.929 14.2422 22.257 17.1691 21.8011 20.5296L20.3543 20.3333C20.7851 17.1583 20.4521 14.5458 19.5081 12.6185C18.7025 10.9739 17.4381 9.79522 15.7368 9.16712C15.4146 11.0582 13.9684 12.6107 12.0627 12.6107C10.1586 12.6107 8.71277 11.0564 8.39149 9.1645C6.65803 9.79553 5.31504 10.9832 4.47108 12.6303C3.48915 14.5467 3.1561 17.1419 3.76765 20.2923L2.33442 20.5706C1.67732 17.1854 2.00519 14.2413 3.17173 11.9646C4.34491 9.67487 6.3392 8.11767 8.88018 7.49293L9.78446 7.27059V8.36883C9.78446 10.0135 10.9072 11.1507 12.0627 11.1507C13.2219 11.1507 14.3443 10.0135 14.3443 8.36948C14.3443 8.31156 14.344 8.27467 14.3422 8.24468L14.2841 7.25678ZM12.0644 14.4774C11.4894 13.8783 10.8423 13.5346 10.109 13.3539C9.30454 13.1557 8.39569 13.1601 7.46613 13.1646C7.32748 13.1652 7.18837 13.1659 7.04908 13.1659H6.31908V20.4314H7.77907V14.6243C8.58826 14.6233 9.20984 14.636 9.75973 14.7715C10.3892 14.9266 10.9233 15.248 11.4433 16.0382L11.6596 16.3669H12.4691L12.6854 16.0382C13.2054 15.248 13.7395 14.9266 14.369 14.7715C14.9189 14.636 15.5405 14.6233 16.3497 14.6243V20.4314H17.8097V13.1659H17.0797C16.9404 13.1659 16.8013 13.1652 16.6626 13.1646C15.7331 13.1601 14.8242 13.1557 14.0197 13.3539C13.2864 13.5346 12.6393 13.8783 12.0644 14.4774Z" stroke="black" stroke-width="0.1"/>
<path fill-rule="evenodd" clip-rule="evenodd" d="M9.91682 7.28987C10.5819 7.19046 11.2969 7.13941 12.0661 7.13941C12.837 7.13941 13.5526 7.1904 14.217 7.28978C14.1072 6.90208 13.931 6.56919 13.7064 6.30708C13.3295 5.86743 12.7857 5.58792 12.0661 5.58792C11.3486 5.58792 10.8054 5.8671 10.4283 6.30708C10.2036 6.56926 10.0272 6.90219 9.91682 7.28987ZM9.31974 5.35698C9.97684 4.5903 10.9264 4.12793 12.0661 4.12793C13.2069 4.12793 14.1575 4.58997 14.8149 5.35698C15.4623 6.11231 15.7932 7.12292 15.8043 8.19384L15.8141 9.13629L14.8992 8.91008C14.0916 8.71044 13.1552 8.59939 12.0661 8.59939C10.9805 8.59939 10.0438 8.71039 9.23246 8.91023L8.31648 9.13586L8.32792 8.19257C8.34091 7.12205 8.67268 6.11195 9.31974 5.35698Z" stroke="black" stroke-width="0.1"/>
</svg>
