<svg width="1663" height="136" viewBox="0 0 1663 136" fill="none" xmlns="http://www.w3.org/2000/svg">
<path d="M1619.04 111.4H1571.24L1564.84 134.4H1527.64L1567.64 1H1621.84L1662.44 134.4H1626.04L1619.04 111.4ZM1612.04 85.6L1595.24 27.6L1578.84 85.6H1612.04Z" fill="white"/>
<path d="M1487.76 84H1523.16V88C1522.96 111 1520.76 118 1511.36 125.8C1506.56 129.8 1499.36 133 1492.76 134.2C1488.76 135 1479.96 135.4 1467.76 135.4C1443.36 135.4 1437.56 134.8 1429.36 131C1417.96 125.6 1410.56 116.2 1407.96 103.2C1406.56 96.6 1405.76 78 1405.76 55.8C1405.76 32.6 1408.96 21.8 1418.16 12.8C1428.96 2.4 1439.16 0 1470.76 0C1490.56 0 1496.96 0.800001 1504.76 4.4C1514.56 9 1519.76 16.8 1521.56 29.2C1522.16 33.8 1522.36 37.4 1522.56 48.8H1487.16C1486.76 40.4 1486.56 39 1485.16 36.4C1482.76 32.2 1477.56 30.8 1464.56 30.8C1451.96 30.8 1446.56 33.2 1444.36 40C1442.76 44.6 1442.36 51.6 1442.36 79.4C1442.36 100.4 1446.36 104.8 1465.76 104.8C1483.36 104.8 1487.96 101.4 1487.96 87.8C1487.96 87.4 1487.96 85.6 1487.76 84Z" fill="white"/>
<path d="M1358.07 84H1393.47V88C1393.27 111 1391.07 118 1381.67 125.8C1376.87 129.8 1369.67 133 1363.07 134.2C1359.07 135 1350.27 135.4 1338.07 135.4C1313.67 135.4 1307.87 134.8 1299.67 131C1288.27 125.6 1280.87 116.2 1278.27 103.2C1276.87 96.6 1276.07 78 1276.07 55.8C1276.07 32.6 1279.27 21.8 1288.47 12.8C1299.27 2.4 1309.47 0 1341.07 0C1360.87 0 1367.27 0.800001 1375.07 4.4C1384.87 9 1390.07 16.8 1391.87 29.2C1392.47 33.8 1392.67 37.4 1392.87 48.8H1357.47C1357.07 40.4 1356.87 39 1355.47 36.4C1353.07 32.2 1347.87 30.8 1334.87 30.8C1322.27 30.8 1316.87 33.2 1314.67 40C1313.07 44.6 1312.67 51.6 1312.67 79.4C1312.67 100.4 1316.67 104.8 1336.07 104.8C1353.67 104.8 1358.27 101.4 1358.27 87.8C1358.27 87.4 1358.27 85.6 1358.07 84Z" fill="white"/>
<path d="M1201.43 30.4V54.4H1258.23V79H1201.43V105H1263.43V134.4H1165.63V1H1262.23V30.4H1201.43Z" fill="white"/>
<path d="M1144.1 1V134.4H1108.9V94.4C1108.9 81.4 1109.1 75.8 1110.7 47.8L1111.5 32.2H1110.3L1105.7 47.4L1100.9 62.6L1090.9 93L1077.1 134.4H1046.5L1032.3 92.8L1022.1 62.6C1019.7 54.8 1016.5 44.6 1012.5 32.2H1011.3L1012.3 47.8C1013.9 75.8 1014.3 83.2 1014.3 94.4V134.4H979.102V1H1034.9L1047.3 39.2C1051.5 52 1053.3 58 1056.5 68.8C1057.9 74.2 1059.3 79.6 1060.9 84.8H1062.3L1065.3 73.4C1069.7 56.8 1070.3 54.4 1075.1 39.4L1087.1 1H1144.1Z" fill="white"/>
<path d="M848.886 30.4V54.4H905.686V79H848.886V105H910.886V134.4H813.086V1H909.686V30.4H848.886Z" fill="white"/>
<path d="M674.805 134.4V1H744.605C757.805 1 769.605 3.4 776.805 7.80001C789.805 15.6 796.405 30 796.405 50.8L796.205 66.6C796.205 99.4 795.005 106.8 787.605 118C779.405 129.8 766.205 134.4 742.605 134.4H674.805ZM710.605 103.8H739.605C748.805 103.8 752.805 101.8 756.205 96C759.005 91.4 759.805 84 759.805 65.8C759.805 50 758.805 42.4 756.205 38.4C753.405 33.8 748.805 32 739.605 32H710.605V103.8Z" fill="white"/>
<path d="M653.183 1V134.4H617.383V1H653.183Z" fill="white"/>
<path d="M596.239 42.6H562.239V40.2C562.239 29.6 558.639 27.2 543.439 27.2C526.039 27.2 521.839 29.6 521.839 40.2C521.839 44.6 522.839 47.8 524.839 49.4C527.039 51.4 528.239 51.6 539.639 52.4C572.039 54.8 572.439 54.8 580.839 57.4C595.439 62 600.239 70.8 600.239 92.2C600.239 110.2 597.639 119.4 590.839 125.4C582.039 133 571.239 135.4 544.839 135.4C510.839 135.4 498.039 132 491.239 121.2C487.039 114.6 485.839 107.4 485.839 91.2H519.839V93.8C519.839 99.4 521.039 102.8 523.839 104.8C526.839 107.2 528.439 107.4 544.839 107.4C556.439 107.4 558.239 107.2 561.239 104.6C563.839 102.4 565.039 99.4 565.039 94C565.039 84.6 562.239 82.4 548.239 81.6C526.439 80.4 515.439 79.2 508.639 77.6C492.039 73.4 486.039 63.6 486.039 39.8C486.039 23.6 489.439 13.6 497.039 8.2C505.839 2 517.039 0 543.039 0C571.039 0 582.439 2.8 589.239 11.4C594.239 17.4 596.439 25.4 596.439 36.6L596.239 42.6Z" fill="white"/>
<path d="M439.692 31.6V134.4H403.892V31.6H370.092V1H475.692V31.6H439.692Z" fill="white"/>
<path d="M357.763 42.6H323.763V40.2C323.763 29.6 320.163 27.2 304.963 27.2C287.563 27.2 283.363 29.6 283.363 40.2C283.363 44.6 284.363 47.8 286.363 49.4C288.563 51.4 289.763 51.6 301.163 52.4C333.563 54.8 333.963 54.8 342.363 57.4C356.963 62 361.763 70.8 361.763 92.2C361.763 110.2 359.163 119.4 352.363 125.4C343.563 133 332.763 135.4 306.363 135.4C272.363 135.4 259.563 132 252.763 121.2C248.563 114.6 247.363 107.4 247.363 91.2H281.363V93.8C281.363 99.4 282.563 102.8 285.363 104.8C288.363 107.2 289.963 107.4 306.363 107.4C317.963 107.4 319.763 107.2 322.763 104.6C325.363 102.4 326.563 99.4 326.563 94C326.563 84.6 323.763 82.4 309.763 81.6C287.963 80.4 276.963 79.2 270.163 77.6C253.563 73.4 247.563 63.6 247.563 39.8C247.563 23.6 250.963 13.6 258.563 8.2C267.363 2 278.563 0 304.563 0C332.563 0 343.963 2.8 350.763 11.4C355.763 17.4 357.963 25.4 357.963 36.6L357.763 42.6Z" fill="white"/>
<path d="M198.536 111.4H150.736L144.336 134.4H107.136L147.136 1H201.336L241.936 134.4H205.536L198.536 111.4ZM191.536 85.6L174.736 27.6L158.336 85.6H191.536Z" fill="white"/>
<path d="M35.8 30.4V54.4H92.6V79H35.8V105H97.8V134.4H0V1H96.6V30.4H35.8Z" fill="white"/>
</svg>
