<svg width="923" height="363" viewBox="0 0 923 363" fill="none" xmlns="http://www.w3.org/2000/svg">
<path d="M868.166 328.097H795.41L785.175 361.57H740.913L799.283 177.053H863.186L922.387 361.57H878.678L868.166 328.097ZM859.313 296.837L831.926 209.143L804.816 296.837H859.313Z" fill="white"/>
<path d="M693.106 293.794H735.155V299.603C735.155 329.204 732.112 339.439 720.77 349.398C714.407 354.931 704.448 359.634 695.042 361.294C688.956 362.4 673.741 362.953 654.93 362.953C619.797 362.953 609.838 360.74 596.283 349.951C587.154 342.759 580.238 329.757 578.578 316.202C577.195 304.306 576.088 279.962 576.088 254.235C576.088 219.932 580.238 204.717 592.687 192.821C607.072 178.99 621.18 175.67 665.166 175.67C690.893 175.67 699.469 176.776 709.704 181.479C722.43 187.289 729.345 196.971 732.112 213.016C733.218 219.102 733.495 223.805 734.048 240.956H691.723C691.446 227.678 690.893 224.911 688.68 220.762C685.083 214.399 677.891 212.463 658.526 212.463C640.268 212.463 631.693 214.399 626.713 219.379C620.904 225.465 620.074 231.551 620.074 270.833C620.074 302.646 620.904 309.286 625.053 316.478C629.203 323.947 637.502 326.437 657.143 326.437C677.891 326.437 687.02 323.671 690.616 316.202C692.829 311.775 693.106 309.009 693.106 297.39V293.794Z" fill="white"/>
<path d="M518.047 293.794H560.096V299.603C560.096 329.204 557.053 339.439 545.711 349.398C539.348 354.931 529.389 359.634 519.983 361.294C513.897 362.4 498.682 362.953 479.871 362.953C444.738 362.953 434.779 360.74 421.224 349.951C412.095 342.759 405.179 329.757 403.519 316.202C402.136 304.306 401.029 279.962 401.029 254.235C401.029 219.932 405.179 204.717 417.628 192.821C432.013 178.99 446.121 175.67 490.107 175.67C515.834 175.67 524.41 176.776 534.645 181.479C547.37 187.289 554.286 196.971 557.053 213.016C558.159 219.102 558.436 223.805 558.989 240.956H516.664C516.387 227.678 515.834 224.911 513.621 220.762C510.024 214.399 502.832 212.463 483.467 212.463C465.209 212.463 456.633 214.399 451.654 219.379C445.845 225.465 445.015 231.551 445.015 270.833C445.015 302.646 445.845 309.286 449.994 316.478C454.144 323.947 462.443 326.437 482.084 326.437C502.832 326.437 511.961 323.671 515.557 316.202C517.77 311.775 518.047 309.009 518.047 297.39V293.794Z" fill="white"/>
<path d="M295.736 212.186V252.575H377.897V282.729H295.736V326.437H384.26V361.57H253.134V177.053H383.153V212.186H295.736Z" fill="white"/>
<path d="M222.14 177.053V361.57H180.091V284.112C180.091 269.173 180.368 262.811 182.027 230.997L182.857 213.293H181.474L176.218 230.444C166.812 260.598 164.046 268.897 159.62 281.345L130.02 361.57H92.6735L62.7967 281.622C57.8172 267.79 55.6041 261.428 45.6452 230.721L40.389 213.846H39.0059L39.8358 231.274C41.7722 262.811 42.0489 271.11 42.0489 284.112V361.57H0V177.053H67.4995L92.3969 245.936C96.5464 258.108 99.3128 266.684 110.102 303.2H111.761L115.911 288.815C123.104 263.641 125.04 257.001 128.913 246.213L153.257 177.053H222.14Z" fill="white"/>
<path d="M858.386 26.4V55.6H917.786V77.4H858.386V109H922.386V134.4H827.586V1H921.586V26.4H858.386Z" fill="white"/>
<path d="M691.844 134.4V1H759.644C795.644 1 810.644 16.4 810.644 53.6C810.644 91.8 809.644 103 805.444 112.2C798.044 127.8 784.444 134.4 759.044 134.4H691.844ZM722.644 108H755.044C765.644 108 771.044 105.8 774.644 100.2C778.244 94.6 779.244 87.2 779.244 66.6C779.244 47.4 778.244 39.8 774.844 34.8C771.644 29.8 766.244 27.8 755.844 27.8H722.644V108Z" fill="white"/>
<path d="M669.323 1V134.4H638.523V1H669.323Z" fill="white"/>
<path d="M617.491 41.4H588.091C588.091 26.2 585.091 23.8 566.291 23.8C545.491 23.8 541.091 26.6 541.091 39.4C541.091 47.6 543.491 51.4 549.491 53C552.291 53.6 552.291 53.6 573.891 55C595.291 56.2 602.691 57.8 609.491 62.2C618.091 67.8 621.091 75.6 621.091 93.2C621.091 110.4 618.691 119.4 612.291 125.4C603.891 133.2 593.291 135.4 566.491 135.4C533.891 135.4 522.291 132.2 515.691 121.6C511.491 115.2 510.091 108.2 510.091 91.6H539.491V94C539.491 101.2 540.691 105.2 543.691 108C546.891 110.6 549.691 111 567.891 111C580.091 111 583.091 110.4 586.491 107.8C589.291 105.6 590.691 101.4 590.691 94.4C590.691 88.6 589.691 85 587.091 83.2C583.891 80.6 583.891 80.6 559.691 79C537.891 77.6 531.691 76.6 524.891 73.2C514.491 68 510.291 58.2 510.291 39.2C510.291 23.2 513.691 13.4 521.091 8C529.691 2 540.491 0 565.291 0C592.491 0 603.491 2.6 610.291 10.6C615.291 16.6 617.691 24.6 617.691 36C617.691 36.8 617.691 39.2 617.491 41.4Z" fill="white"/>
<path d="M348.889 41.4H319.489C319.489 26.2 316.489 23.8 297.689 23.8C276.889 23.8 272.489 26.6 272.489 39.4C272.489 47.6 274.889 51.4 280.889 53C283.689 53.6 283.689 53.6 305.289 55C326.689 56.2 334.089 57.8 340.889 62.2C349.489 67.8 352.489 75.6 352.489 93.2C352.489 110.4 350.089 119.4 343.689 125.4C335.289 133.2 324.689 135.4 297.889 135.4C265.289 135.4 253.689 132.2 247.089 121.6C242.889 115.2 241.489 108.2 241.489 91.6H270.889V94C270.889 101.2 272.089 105.2 275.089 108C278.289 110.6 281.089 111 299.289 111C311.489 111 314.489 110.4 317.889 107.8C320.689 105.6 322.089 101.4 322.089 94.4C322.089 88.6 321.089 85 318.489 83.2C315.289 80.6 315.289 80.6 291.089 79C269.289 77.6 263.089 76.6 256.289 73.2C245.889 68 241.689 58.2 241.689 39.2C241.689 23.2 245.089 13.4 252.489 8C261.089 2 271.889 0 296.689 0C323.889 0 334.889 2.6 341.689 10.6C346.689 16.6 349.089 24.6 349.089 36C349.089 36.8 349.089 39.2 348.889 41.4Z" fill="white"/>
<path d="M196.602 110.2H144.002L136.602 134.4H104.602L146.802 1H193.002L235.802 134.4H204.202L196.602 110.2ZM190.202 87.6L170.402 24.2L150.802 87.6H190.202Z" fill="white"/>
<path d="M30.8 26.4V55.6H90.2V77.4H30.8V109H94.8V134.4H0V1H94V26.4H30.8Z" fill="white"/>
<path d="M446.231 27.6V134.4H415.431V27.6H379.431V1H484.031V27.6H446.231Z" fill="white"/>
<rect x="368.501" y="1" width="26.7314" height="68.3735" fill="white"/>
<rect x="470.283" y="1" width="23.9514" height="68.3735" fill="white"/>
<rect x="494.234" y="107.651" width="26.7493" height="125.008" transform="rotate(90 494.234 107.651)" fill="white"/>
</svg>
