<svg width="24" height="24" viewBox="0 0 24 24" fill="none" xmlns="http://www.w3.org/2000/svg">
<path d="M5 21C4.45 21 3.97917 20.8042 3.5875 20.4125C3.19583 20.0208 3 19.55 3 19V5C3 4.45 3.19583 3.97917 3.5875 3.5875C3.97917 3.19583 4.45 3 5 3H19C19.55 3 20.0208 3.19583 20.4125 3.5875C20.8042 3.97917 21 4.45 21 5V19C21 19.55 20.8042 20.0208 20.4125 20.4125C20.0208 20.8042 19.55 21 19 21H5Z" fill="black"/>
<path d="M14.7697 17.18C14.9071 17.2526 15.0847 17.2448 15.2072 17.1363L15.2116 17.1406C15.6801 16.7252 16.1535 16.3154 16.6317 15.9113C16.7831 15.7861 16.7569 15.5858 16.637 15.4186L16.5276 15.2699C16.2257 14.863 15.9387 14.4771 15.9387 13.7028V10.8153L15.9396 10.5221C15.9466 9.41526 15.9519 8.40376 15.1232 7.63026C14.4119 6.94776 13.2359 6.70801 12.3346 6.70801C10.5732 6.70801 8.60711 7.36426 8.19236 9.54301C8.15123 9.77401 8.31748 9.89651 8.46886 9.93063L10.2661 10.1231C10.4324 10.1153 10.5549 9.95163 10.5864 9.78451C10.7404 9.03463 11.3704 8.67238 12.0765 8.67238C12.4571 8.67238 12.8894 8.81238 13.116 9.15363C13.347 9.49488 13.3435 9.94988 13.3409 10.3576V10.7356C13.1659 10.7549 12.9847 10.7738 12.7975 10.7925C11.8236 10.8923 10.7001 11.0078 9.85748 11.3788C8.69723 11.8793 7.88086 12.903 7.88086 14.4063C7.88086 16.3313 9.09448 17.292 10.6529 17.292C11.9706 17.292 12.6899 16.9823 13.7057 15.9445L13.8519 16.1598C14.0916 16.5141 14.2509 16.7504 14.768 17.18H14.7697ZM10.5846 14.0851C10.5846 12.5066 11.9995 12.2205 13.3382 12.2205V12.7193C13.3391 13.3983 13.34 13.974 12.9917 14.5856C12.6977 15.1063 12.2305 15.4265 11.7099 15.4265C10.9994 15.4265 10.5846 14.8849 10.5846 14.0851Z" fill="white"/>
</svg>
