<?xml version="1.0" encoding="UTF-8"?>
<svg width="369px" height="189px" viewBox="0 0 369 189" version="1.1" xmlns="http://www.w3.org/2000/svg" xmlns:xlink="http://www.w3.org/1999/xlink">
    <title>Logo_FitX_Deutschland_GmbH</title>
    <g id="Page-1" stroke="none" stroke-width="1" fill="none" fill-rule="evenodd">
        <g id="Logo_FitX_Deutschland_GmbH" transform="translate(0.000000, 0.000000)" fill-rule="nonzero">
            <g id="Group" transform="translate(0.200000, 5.800000)" fill="#FFFFFF">
                <polygon id="Path" points="70 28.9 70 3.55271368e-15 0 3.55271368e-15 0 119.6 29.9 119.6 29.9 79 56.5 79 56.5 50.1 29.9 50.1 29.9 28.9"></polygon>
                <polygon id="Path" points="80.5 3.55271368e-15 110.4 3.55271368e-15 110.4 119.6 80.5 119.6"></polygon>
                <polygon id="Path" points="147.9 28.9 120.3 28.9 120.3 3.55271368e-15 205.4 3.55271368e-15 205.4 28.8 177.8 28.8 177.8 119.5 147.9 119.5"></polygon>
            </g>
            <g id="Group" transform="translate(0.000000, 155.800000)" fill="#FFFFFF">
                <polygon id="Path" points="5.3 19.9 5.3 31.9 -1.0658141e-14 31.9 -1.0658141e-14 0.6 17.3 0.6 17.3 5.6 5.3 5.6 5.3 14.9 16.4 14.9 16.4 19.9"></polygon>
                <path d="M42.6,5.68434189e-14 C51.8,5.68434189e-14 58.7,7 58.7,16.1 C58.7,25.3 51.8,32.2 42.6,32.2 C33.4,32.2 26.5,25.2 26.5,16.1 C26.5,7 33.5,5.68434189e-14 42.6,5.68434189e-14 Z M42.6,27.1 C48.6,27.1 53.3,22.3 53.3,16.2 C53.3,10.1 48.7,5.3 42.6,5.3 C36.5,5.3 31.9,10.1 31.9,16.2 C31.9,22.2 36.5,27.1 42.6,27.1 Z" id="Shape"></path>
                <path d="M69.8,0.5 L79.8,0.5 C85.7,0.5 89.9,3.8 89.9,9.4 C89.9,13.9 87.2,16.5 83.8,17.4 C87.7,19.3 90.4,24.7 91.3,31.8 L85.9,31.8 C84.7,24.5 81.3,19.4 77.4,19.4 L75,19.4 L75,31.8 L69.8,31.8 L69.8,0.5 L69.8,0.5 Z M79.8,5.5 L75.1,5.5 L75.1,14.4 L79.8,14.4 C82.5,14.4 84.5,12.8 84.5,10 C84.5,7.2 82.5,5.5 79.8,5.5 Z" id="Shape"></path>
                <path d="M133.9,24.1 L122,24.1 L119.2,31.8 L113.4,31.8 L125.1,0.5 L130.9,0.5 L142.6,31.8 L136.7,31.8 L133.9,24.1 Z M123.6,19.1 L132.1,19.1 L127.9,7.4 L123.6,19.1 Z" id="Shape"></path>
                <polygon id="Path" points="152.1 31.8 152.1 0.5 157.3 0.5 157.3 26.8 169.4 26.8 169.4 31.8"></polygon>
                <polygon id="Path" points="179.6 31.8 179.6 0.5 184.8 0.5 184.8 26.8 196.9 26.8 196.9 31.8"></polygon>
                <path d="M235.8,5.68434189e-14 C245,5.68434189e-14 251.9,7 251.9,16.1 C251.9,25.3 245,32.2 235.8,32.2 C226.6,32.2 219.7,25.2 219.7,16.1 C219.7,7 226.7,5.68434189e-14 235.8,5.68434189e-14 Z M235.8,27.1 C241.8,27.1 246.5,22.3 246.5,16.2 C246.5,10.1 241.9,5.3 235.8,5.3 C229.7,5.3 225.1,10.1 225.1,16.2 C225.1,22.2 229.7,27.1 235.8,27.1 Z" id="Shape"></path>
                <polygon id="Path" points="268.3 19.9 268.3 31.9 263.1 31.9 263.1 0.6 280.4 0.6 280.4 5.6 268.3 5.6 268.3 14.9 279.4 14.9 279.4 19.9"></polygon>
                <path d="M329.7,0.5 L329.7,20.3 C329.7,27.7 325.2,32.3 318.1,32.3 C311,32.3 306.5,27.7 306.5,20.3 L306.5,0.5 L311.7,0.5 L311.7,20.7 C311.7,24.6 314.2,27.2 318.1,27.2 C322,27.2 324.4,24.6 324.4,20.7 L324.4,0.5 L329.7,0.5 Z" id="Path"></path>
                <path d="M357.9,7.3 C356.2,6 353.6,5 351.1,5 C348.1,5 346.5,6.5 346.5,8.5 C346.5,9.8 347.4,10.9 349.1,12 L353.9,15 C357.9,17.4 359.4,19.9 359.4,23.3 C359.4,28 356.1,32.3 349.2,32.3 C346,32.3 343.3,31.4 341.4,30.5 L341.4,24.6 C343.1,25.9 346,27.3 349,27.3 C352.2,27.3 353.8,25.6 353.8,23.6 C353.8,22.2 352.9,21 350.9,19.8 L346,16.8 C342.1,14.5 340.9,12 340.9,8.7 C340.9,4.5 343.7,2.84217094e-14 351.3,2.84217094e-14 C353.8,2.84217094e-14 356.2,0.7 358,1.6 L358,7.3 L357.9,7.3 Z" id="Path"></path>
            </g>
            <g id="Group" transform="translate(213.900000, 0.000000)" fill="#ED6A12">
                <path d="M113.3,65.6 L154.8,21.6 C141.6,11.3 123.7,3.6 103.4,-7.10542736e-15 L77.4,27.6 L51.4,-7.10542736e-15 C31.1,3.6 13.2,11.2 -2.84217094e-14,21.6 L41.5,65.6 L-2.84217094e-14,109.6 C13.2,119.9 31.1,127.6 51.4,131.2 L77.4,103.6 L103.4,131.2 C123.7,127.6 141.6,120 154.8,109.6 L113.3,65.6 Z" id="Path"></path>
            </g>
        </g>
    </g>
</svg>