<svg width="1312" height="529" viewBox="0 0 1312 529" fill="none" xmlns="http://www.w3.org/2000/svg">
<path d="M137.6 482.4C137.6 470.2 144.3 460.5 158.4 460.5C172.4 460.5 179.1 470.2 179.1 482.4C179.1 494.6 172.4 504.3 158.4 504.3C144.3 504.3 137.6 494.6 137.6 482.4ZM169.8 482.4C169.8 474 166.2 468 158.4 468C150.5 468 146.9 474 146.9 482.4C146.9 490.8 150.5 496.8 158.4 496.8C166.2 496.8 169.8 490.8 169.8 482.4Z" fill="white"/>
<path d="M198.699 470.5V473.3H204.999L204.899 479.5H198.699V503.4H190.199V479.5H184.799L184.899 473.3H190.199V470.6C190.199 463.2 193.199 459.6 200.299 459.6C202.299 459.6 203.999 460 205.699 460.2L205.399 466.6C204.399 466.3 203.199 466.2 202.299 466.2C199.699 466.3 198.699 467.3 198.699 470.5Z" fill="white"/>
<path d="M241.2 503.3H232.7V479.4H222V503.3H213.5V479.4H208L208.1 473.2H213.4V470.5C213.4 463.1 215.6 459.5 222.7 459.5C224.8 459.5 226.7 459.9 228.1 460.1L228 466.5C227.1 466.2 226.1 466.1 225.2 466.1C223 466.1 222 467.2 222 470.3V473.1H241.2V503.3ZM231.8 464.6C231.8 461.9 233.8 459.8 236.9 459.8C240.1 459.8 242.1 462 242.1 464.6C242.1 467.2 240.1 469.4 236.9 469.4C233.8 469.5 231.8 467.3 231.8 464.6Z" fill="white"/>
<path d="M249.9 488.3C249.9 479.4 255 472.5 265.2 472.5C274.1 472.5 278.8 477 279.4 483.8H271.2C270.7 480.3 268.6 478.8 265.5 478.8C261.3 478.8 258.7 481.7 258.7 488.3C258.7 494.9 261.4 497.8 265.5 497.8C268.6 497.8 270.7 496.3 271.2 492.8H279.4C278.9 499.5 274.1 504.1 265.2 504.1C255.1 504 249.9 497.1 249.9 488.3Z" fill="white"/>
<path d="M287.4 464.6C287.4 461.9 289.4 459.8 292.5 459.8C295.7 459.8 297.6 462 297.6 464.6C297.6 467.2 295.7 469.4 292.5 469.4C289.4 469.5 287.4 467.3 287.4 464.6ZM288.2 473.2H296.7V503.3H288.2V473.2Z" fill="white"/>
<path d="M335.299 497.4L334.999 503.4C328.299 504.4 325.699 502.2 325.299 498.7H325.199C322.899 502.5 319.399 504.1 314.999 504.1C309.399 504.1 305.299 501.1 305.299 495.4C305.299 485.9 316.999 484.9 324.399 485.6V482.8C324.399 479.6 322.699 478.3 319.399 478.3C315.599 478.3 313.899 480.5 313.899 482.6H305.899C305.899 476.6 311.599 472.6 319.499 472.6C327.499 472.6 332.699 476.2 332.699 482.9V493.8C332.699 496 333.199 497.4 335.299 497.4ZM324.399 491.3V490.1C317.099 489.6 313.999 491 313.999 494.6C313.999 497.3 315.799 498.3 317.799 498.3C321.499 498.3 324.399 495.6 324.399 491.3Z" fill="white"/>
<path d="M342.799 495.2V460.3H351.299V493.5C351.299 496.4 351.899 497.3 354.299 497.3L353.999 503.4C346.699 504.5 342.799 502.6 342.799 495.2Z" fill="white"/>
<path d="M389.9 469.2V478.8H407.8V486.3H389.9V503.3H380.6V461.4H409.6V469.2H389.9Z" fill="white"/>
<path d="M416.9 464.6C416.9 461.9 418.9 459.8 422 459.8C425.2 459.8 427.1 462 427.1 464.6C427.1 467.2 425.2 469.4 422 469.4C418.9 469.5 416.9 467.3 416.9 464.6ZM417.7 473.2H426.2V503.3H417.7V473.2Z" fill="white"/>
<path d="M454 496.8L453.6 503.1C452.2 503.4 450.5 503.8 448.5 503.8C442 503.8 438.9 501 438.9 493.8V479.4H433.4L433.5 473.2H438.9L439.7 464H447.4V473.2H453.9L453.8 479.4H447.4V493.2C447.4 496.3 448.4 497.3 450.7 497.3C451.7 497.3 453 497.1 454 496.8Z" fill="white"/>
<path d="M489.6 482V503.3H481.1V484C481.1 482.5 480.9 479.1 476.7 479.1C474.2 479.1 469.9 480.8 469.9 487.9V503.3H461.4V473.2H469.1L469.6 477.7C472.1 474.3 475.9 472.4 480 472.4C485.3 472.5 489.6 475.5 489.6 482Z" fill="white"/>
<path d="M527.499 490.1H506.499C506.699 496.1 509.699 498.1 513.299 498.1C516.199 498.1 518.299 496.9 519.199 494.3H526.899C526.099 500.1 521.599 504.1 512.799 504.1C502.599 504.1 497.799 497.2 497.799 488.3C497.799 479.4 502.799 472.5 512.699 472.5C522.699 472.5 527.899 479.4 527.499 490.1ZM506.499 484.9H519.099C518.599 480.3 515.899 478.5 512.799 478.5C509.699 478.5 506.999 480.3 506.499 484.9Z" fill="white"/>
<path d="M533.4 494.1H542.1C542.3 496.3 543.9 498.1 547.6 498.1C550.6 498.1 552.6 497.2 552.6 494.9C552.6 492 549.6 491.8 544.5 490.8C540.4 490 534.2 488.7 534.2 481.9C534.2 475.9 539.5 472.6 547.2 472.6C555.6 472.6 560 476.3 560.5 481.9L552.1 481.8C551.5 479 549.7 477.8 547 477.8C544.5 477.8 542.6 478.8 542.6 480.6C542.6 482.9 545.3 483.5 549 484.3C554.6 485.4 561.1 486.6 561.1 493.9C561.1 500.4 554.8 504.1 547 504.1C537.9 504 533.4 500.2 533.4 494.1Z" fill="white"/>
<path d="M567.1 494.1H575.8C576 496.3 577.6 498.1 581.4 498.1C584.4 498.1 586.4 497.2 586.4 494.9C586.4 492 583.4 491.8 578.3 490.8C574.2 490 568 488.7 568 481.9C568 475.9 573.3 472.6 581 472.6C589.4 472.6 593.8 476.3 594.3 481.9L585.9 481.8C585.3 479 583.5 477.8 580.8 477.8C578.3 477.8 576.4 478.8 576.4 480.6C576.4 482.9 579.1 483.5 582.8 484.3C588.4 485.4 594.9 486.6 594.9 493.9C594.9 500.4 588.6 504.1 580.8 504.1C571.6 504 567.1 500.2 567.1 494.1Z" fill="white"/>
<path d="M655.099 475.2C655.099 483.9 649.299 488.8 639.399 488.8L630.599 488.7V503.2H621.299V461.3H639.999C650.199 461.4 655.099 467.3 655.099 475.2ZM646.099 475.2C646.099 470.4 643.399 468.9 638.399 468.9H630.599V481.5H638.399C643.099 481.5 646.099 479.8 646.099 475.2Z" fill="white"/>
<path d="M690.199 497.4L689.899 503.4C683.199 504.4 680.599 502.2 680.199 498.7H680.099C677.799 502.5 674.299 504.1 669.899 504.1C664.399 504.1 660.199 501.1 660.199 495.4C660.199 485.9 671.899 484.9 679.299 485.6V482.8C679.299 479.6 677.599 478.3 674.299 478.3C670.499 478.3 668.799 480.5 668.799 482.6H660.799C660.799 476.6 666.499 472.6 674.399 472.6C682.399 472.6 687.599 476.2 687.599 482.9V493.8C687.599 496 687.999 497.4 690.199 497.4ZM679.199 491.3V490.1C671.899 489.6 668.799 491 668.799 494.6C668.799 497.3 670.599 498.3 672.599 498.3C676.399 498.3 679.199 495.6 679.199 491.3Z" fill="white"/>
<path d="M717.399 473V481.1C710.799 480.2 706.199 483 706.199 489.8V503.3H697.699V473.2H705.399L706.099 479.1C708.899 474.6 712.599 472.7 717.399 473Z" fill="white"/>
<path d="M741.299 496.8L740.899 503.1C739.499 503.4 737.799 503.8 735.799 503.8C729.299 503.8 726.199 501 726.199 493.8V479.4H720.699L720.799 473.2H726.199L726.999 464H734.699V473.2H741.199L741.099 479.4H734.699V493.2C734.699 496.3 735.699 497.3 737.999 497.3C738.999 497.3 740.299 497.1 741.299 496.8Z" fill="white"/>
<path d="M776.8 482V503.3H768.3V484C768.3 482.5 768.1 479.1 763.9 479.1C761.4 479.1 757.1 480.8 757.1 487.9V503.3H748.6V473.2H756.3L756.8 477.7C759.3 474.3 763.1 472.4 767.2 472.4C772.6 472.5 776.8 475.5 776.8 482Z" fill="white"/>
<path d="M814.8 490.1H793.8C794 496.1 797 498.1 800.6 498.1C803.5 498.1 805.6 496.9 806.5 494.3H814.2C813.4 500.1 808.9 504.1 800.1 504.1C789.9 504.1 785.1 497.2 785.1 488.3C785.1 479.4 790.1 472.5 800 472.5C809.9 472.5 815.1 479.4 814.8 490.1ZM793.8 484.9H806.4C805.9 480.3 803.2 478.5 800.1 478.5C797 478.5 794.3 480.3 793.8 484.9Z" fill="white"/>
<path d="M842.3 473V481.1C835.7 480.2 831.1 483 831.1 489.8V503.3H822.6V473.2H830.3L831 479.1C833.8 474.6 837.6 472.7 842.3 473Z" fill="white"/>
<path d="M865.199 488.3C865.199 479.4 870.299 472.5 880.699 472.5C891.099 472.5 896.199 479.4 896.199 488.3C896.199 497.2 890.999 504.1 880.699 504.1C870.399 504 865.199 497.1 865.199 488.3ZM887.499 488.3C887.499 481.7 884.899 478.8 880.699 478.8C876.499 478.8 873.999 481.7 873.999 488.3C873.999 494.9 876.599 497.8 880.699 497.8C884.899 497.8 887.499 494.9 887.499 488.3Z" fill="white"/>
<path d="M915.3 470.5V473.3H921.6L921.5 479.5H915.3V503.4H906.8V479.5H901.4L901.5 473.3H906.8V470.6C906.8 463.2 909.8 459.6 916.9 459.6C918.9 459.6 920.6 460 922.3 460.2L922 466.6C921 466.3 919.8 466.2 918.9 466.2C916.4 466.3 915.3 467.3 915.3 470.5Z" fill="white"/>
<path d="M964.1 496.8L963.7 503.1C962.3 503.4 960.6 503.8 958.6 503.8C952.1 503.8 949 501 949 493.8V479.4H943.5L943.6 473.2H949L949.8 464H957.5V473.2H964L963.9 479.4H957.5V493.2C957.5 496.3 958.5 497.3 960.8 497.3C961.8 497.3 963.1 497.1 964.1 496.8Z" fill="white"/>
<path d="M999.7 482V503.3H991.2V484C991.2 482.5 991 479.1 986.8 479.1C984.3 479.1 980 480.8 980 487.9V503.3H971.5V460.2H980V477.4C982.5 474.2 986.2 472.4 990.2 472.4C995.4 472.5 999.7 475.5 999.7 482Z" fill="white"/>
<path d="M1037.6 490.1H1016.6C1016.8 496.1 1019.8 498.1 1023.4 498.1C1026.3 498.1 1028.4 496.9 1029.3 494.3H1037C1036.2 500.1 1031.7 504.1 1022.9 504.1C1012.7 504.1 1007.9 497.2 1007.9 488.3C1007.9 479.4 1012.9 472.5 1022.8 472.5C1032.8 472.5 1038 479.4 1037.6 490.1ZM1016.7 484.9H1029.3C1028.8 480.3 1026.1 478.5 1023 478.5C1019.8 478.5 1017.2 480.3 1016.7 484.9Z" fill="white"/>
<path d="M1098.7 461.4V503.3H1089.3L1072.9 475.9V503.3H1064V461.4H1073.4L1089.8 489.3V461.4H1098.7Z" fill="white"/>
<path d="M1118.8 469.2V478.8H1136.7V486.3H1118.8V503.3H1109.5V461.4H1138.5V469.2H1118.8Z" fill="white"/>
<path d="M1175.6 495.5V503.3H1146.6V461.4H1155.9V495.5H1175.6Z" fill="white"/>
<path d="M1063.6 114.9C1058.4 110.6 1052.5 108.2 1047.8 107.3C1046.8 108.5 1045.7 109.8 1044.7 111C1050.8 112.2 1056.1 115 1060.6 118.7C1061.5 117.5 1062.5 116.2 1063.6 114.9Z" fill="#013369"/>
<path d="M1057.3 123.2C1053.5 120 1048.1 116.9 1041.5 115.6C1040.5 117 1038.9 119.7 1038.9 119.7C1044.3 120.7 1049.9 123.2 1054.6 127.1C1055.4 125.9 1056.4 124.6 1057.3 123.2Z" fill="#013369"/>
<path d="M1070.6 107.2C1067.4 104.6 1062.8 101.5 1055.9 99.7998C1054.7 100.8 1053.3 101.9 1052 103.1C1057.5 104.3 1062.7 106.7 1067.3 110.6C1068.3 109.5 1069.4 108.4 1070.6 107.2Z" fill="#013369"/>
<path d="M1120.8 88.3998C1075.2 76.9998 1057.4 42.7998 1057.4 42.7998C1057.4 42.7998 1039.7 76.9998 994 88.3998C954.9 98.1998 927.1 76.5998 927.1 76.5998V303.5C927.1 311.2 930.3 343.9 991.4 352.8C1015.5 356.3 1033.5 364 1046.5 376.5C1051.2 381 1054.7 385.5 1057.4 389.7C1060.1 385.5 1063.6 381 1068.3 376.5C1081.3 364 1099.3 356.3 1123.4 352.8C1184.5 344 1187.7 311.2 1187.7 303.5V76.4998C1187.7 76.4998 1159.9 98.0998 1120.8 88.3998ZM1110.6 111.7L1114.8 99.6998L1119 111.7H1131.7L1121.3 119.5L1125.1 131.7L1114.8 124.4L1104.5 131.7L1108.3 119.5L1097.9 111.7H1110.6ZM1110.6 152.4L1114.8 140.4L1119 152.4H1131.7L1121.3 160.2L1125.1 172.4L1114.8 165.1L1104.5 172.4L1108.3 160.2L1097.9 152.4H1110.6ZM1081.5 85.2998C1083.8 85.2998 1084.6 85.6998 1084.6 85.6998C1084.6 85.6998 1077.3 88.4998 1068.8 94.9998C1068.8 94.9998 1066.7 94.1998 1064.6 93.5998C1063.2 94.4998 1061.8 95.3998 1060.5 96.3998C1064.4 97.3998 1069.5 99.3998 1074.4 103.4C1075.5 102.4 1076.6 101.3 1077.8 100.3C1076.7 99.3998 1074.8 98.0998 1073.1 97.0998C1080.6 89.6998 1086 86.8998 1086 86.8998C1087.1 86.7998 1087.7 88.0998 1088 88.8998C1092.6 100.2 1093.7 114.1 1090.3 127.3C1085.1 147.5 1068 166.2 1031.4 170.9C1030.6 171 1029.7 170.8 1029.6 170.3C1031.3 162.6 1035.4 147.9 1044.3 132.4C1046.1 133.4 1047.6 134.4 1049.2 135.7C1049.7 134.8 1050.4 133.7 1051.5 131.9C1047 128.3 1041.8 125.9 1036 124.8C1036 124.8 1034.9 127 1034.1 128.7C1034.1 128.7 1036.4 129.1 1039.1 130.1C1031.2 146.9 1028.5 162.6 1027.8 169.7C1025.6 166.1 1023.8 157.9 1023.2 153.3C1017.4 110.6 1048.1 85.6998 1081.5 85.2998ZM995.8 111.7L1000 99.6998L1004.2 111.7H1016.9L1006.5 119.5L1010.3 131.7L1000 124.4L989.7 131.7L993.5 119.5L983.1 111.7H995.8ZM995.8 152.4L1000 140.4L1004.2 152.4H1016.9L1006.5 160.2L1010.3 172.4L1000 165.1L989.7 172.4L993.5 160.2L983.1 152.4H995.8ZM950.7 111.7L954.9 99.6998L959.1 111.7H971.8L961.4 119.5L965.2 131.7L954.9 124.4L944.6 131.7L948.4 119.5L938 111.7H950.7ZM938 152.4H950.7L954.9 140.4L959.1 152.4H971.8L961.4 160.2L965.2 172.4L954.9 165.1L944.6 172.4L948.4 160.2L938 152.4ZM1121.2 337.5C1075.1 344.6 1057.4 366.5 1057.4 366.5C1057.4 366.5 1039.7 344.7 993.6 337.5C940.8 329.4 942.4 304.6 942.4 303.3V184.5H1172.3V303.3C1172.4 304.6 1173.9 329.4 1121.2 337.5ZM1166.4 160.2L1170.2 172.4L1159.9 165.1L1149.6 172.4L1153.4 160.2L1143 152.4H1155.7L1159.9 140.4L1164.1 152.4H1176.8L1166.4 160.2ZM1166.4 119.5L1170.2 131.7L1159.9 124.4L1149.6 131.7L1153.4 119.5L1143 111.7H1155.7L1159.9 99.6998L1164.1 111.7H1176.8L1166.4 119.5Z" fill="#013369"/>
<path d="M948.4 160.2L938 152.4H950.7L954.9 140.4L959.1 152.4H971.8L961.4 160.2L965.2 172.4L954.9 165.1L944.6 172.4L948.4 160.2Z" fill="white"/>
<path d="M993.5 160.2L983.1 152.4H995.8L1000 140.4L1004.2 152.4H1016.9L1006.5 160.2L1010.3 172.4L1000 165.1L989.7 172.4L993.5 160.2Z" fill="white"/>
<path d="M948.4 119.5L938 111.7H950.7L954.9 99.7002L959.1 111.7H971.8L961.4 119.5L965.2 131.7L954.9 124.4L944.6 131.7L948.4 119.5Z" fill="white"/>
<path d="M993.5 119.5L983.1 111.7H995.8L1000 99.7002L1004.2 111.7H1016.9L1006.5 119.5L1010.3 131.7L1000 124.4L989.7 131.7L993.5 119.5Z" fill="white"/>
<path d="M1170.2 172.5L1159.9 165.2L1149.6 172.5L1153.4 160.3L1143 152.5H1155.7L1159.9 140.5L1164.1 152.5H1176.8L1166.4 160.3L1170.2 172.5Z" fill="white"/>
<path d="M1125.1 172.5L1114.8 165.2L1104.5 172.5L1108.3 160.3L1097.9 152.5H1110.6L1114.8 140.5L1119 152.5H1131.7L1121.3 160.3L1125.1 172.5Z" fill="white"/>
<path d="M1170.2 131.7L1159.9 124.4L1149.6 131.7L1153.4 119.5L1143 111.7H1155.7L1159.9 99.7002L1164.1 111.7H1176.8L1166.4 119.5L1170.2 131.7Z" fill="white"/>
<path d="M1125.1 131.7L1114.8 124.4L1104.5 131.7L1108.3 119.5L1097.9 111.7H1110.6L1114.8 99.7002L1119 111.7H1131.7L1121.3 119.5L1125.1 131.7Z" fill="white"/>
<path d="M1086.1 86.8002C1086.1 86.8002 1080.7 89.6002 1073.2 97.0002C1074.9 98.0002 1076.8 99.3002 1077.9 100.2C1076.8 101.2 1075.6 102.3 1074.5 103.3C1069.6 99.3002 1064.5 97.2002 1060.6 96.3002C1061.9 95.4002 1063.3 94.4002 1064.7 93.5002C1066.8 94.0002 1068.9 94.9002 1068.9 94.9002C1077.4 88.4002 1084.7 85.6002 1084.7 85.6002C1084.7 85.6002 1083.8 85.2002 1081.6 85.2002C1048.2 85.6002 1017.5 110.6 1023.3 153.2C1023.9 157.7 1025.7 165.9 1027.9 169.6C1028.6 162.5 1031.3 146.8 1039.2 130C1036.4 129 1034.2 128.6 1034.2 128.6C1035 126.9 1036.1 124.7 1036.1 124.7C1042 125.8 1047.1 128.3 1051.6 131.8C1050.5 133.5 1049.8 134.7 1049.3 135.6C1047.7 134.4 1046.1 133.3 1044.4 132.3C1035.5 147.8 1031.4 162.5 1029.7 170.2C1029.8 170.7 1030.8 170.9 1031.5 170.8C1068.1 166.1 1085.2 147.4 1090.4 127.2C1093.8 113.9 1092.7 100.1 1088.1 88.8002C1087.7 88.1002 1087.1 86.7002 1086.1 86.8002ZM1054.6 127.1C1049.8 123.1 1044.3 120.7 1038.9 119.7C1038.9 119.7 1040.6 117 1041.5 115.6C1048.2 116.9 1053.6 120 1057.3 123.2C1056.4 124.6 1055.4 125.9 1054.6 127.1ZM1060.6 118.7C1056.2 115 1050.8 112.2 1044.7 111C1045.6 109.8 1046.7 108.5 1047.8 107.3C1052.4 108.1 1058.4 110.6 1063.6 114.9C1062.5 116.2 1061.5 117.5 1060.6 118.7ZM1067.3 110.6C1062.7 106.8 1057.5 104.3 1052 103.1C1053.3 101.8 1054.7 100.8 1055.9 99.8002C1062.8 101.5 1067.4 104.5 1070.6 107.2C1069.4 108.4 1068.3 109.5 1067.3 110.6Z" fill="white"/>
<path d="M1186.8 67.3C1174.9 75.8 1152.1 87.5 1122.8 80.3C1072 67.8 1057.4 24 1057.4 24C1057.4 24 1042.9 67.8 991.999 80.3C962.699 87.5 939.899 75.9 927.999 67.3H918.799V303.4C918.799 309.4 920.299 321.1 929.899 332.9C941.899 347.4 962.099 356.9 990.199 360.9C1012.5 364.1 1029 371.1 1040.7 382.4C1049.3 390.6 1057.4 404.9 1057.4 404.9C1057.4 404.9 1065.8 390.3 1074.1 382.4C1085.7 371.2 1102.3 364.2 1124.6 360.9C1152.6 356.9 1172.9 347.4 1184.9 332.9C1194.6 321.1 1196 309.4 1196 303.4V67.3H1186.8ZM1187.7 303.4C1187.7 311.1 1184.5 343.8 1123.4 352.7C1099.3 356.2 1081.3 363.9 1068.3 376.4C1063.6 380.9 1060.1 385.4 1057.4 389.6C1054.7 385.4 1051.2 380.9 1046.5 376.4C1033.6 363.9 1015.5 356.2 991.399 352.7C930.299 343.9 927.099 311.1 927.099 303.4V76.5C927.099 76.5 954.899 98.1 993.999 88.3C1039.6 76.9 1057.4 42.7 1057.4 42.7C1057.4 42.7 1075.1 76.9 1120.8 88.3C1159.9 98.1 1187.7 76.5 1187.7 76.5V303.4Z" fill="white"/>
<path d="M1172.4 303.3V184.5H942.4V303.3C942.4 304.6 940.8 329.3 993.6 337.5C1039.7 344.6 1057.4 366.5 1057.4 366.5C1057.4 366.5 1075.1 344.6 1121.2 337.5C1173.9 329.4 1172.4 304.6 1172.4 303.3ZM1029 210.9L1022.2 214.9V330.2L1004.9 325L979.9 251.4V299.9L987.8 306V321L953.2 312.2V299.4L961.1 296.3V215L953 211V196.3H979.2L1003.7 271.4V214.9L996.6 210.9V196.2H1029V210.9ZM1095.5 226H1082.4L1078.4 213.8H1063.2V248.3H1074.6L1079.1 241.7H1088.2V272.4H1079.1L1074.8 266.2H1063.2V323L1070.1 331.3V346L1035.8 333.2V320.8L1043.4 317.7V214.9L1035.9 211.1V196.3H1095.5V226ZM1161.7 312L1101.1 328.2V313.5L1109.6 306.5V214.8L1102.3 211V196.2H1136.7V211L1129.9 214.8V300.8L1144.7 296.8L1147.5 274.2H1161.6V312H1161.7Z" fill="white"/>
<path d="M831.6 400.6V28.2002H837.8V400.6H831.6Z" fill="white"/>
<path d="M1003.8 271.4V214.9L996.7 210.9V196.2H1029V210.9L1022.2 214.9V330.2L1004.9 325L979.9 251.4V299.9L987.8 306V321L953.2 312.2V299.4L961.1 296.3V215L953 211V196.3H979.2L1003.8 271.4Z" fill="#D50A0A"/>
<path d="M1063.2 323L1070.1 331.3V346L1035.8 333.2V320.8L1043.4 317.7V214.9L1035.9 211.1V196.3H1095.5V226H1082.4L1078.4 213.8H1063.2V248.3H1074.6L1079.1 241.7H1088.2V272.4H1079.1L1074.8 266.2H1063.2V323Z" fill="#D50A0A"/>
<path d="M1101.1 328.2V313.5L1109.6 306.5V214.8L1102.3 211V196.2H1136.7V211L1129.9 214.8V300.8L1144.7 296.8L1147.5 274.2H1161.6V312L1101.1 328.2Z" fill="#D50A0A"/>
<path d="M237 166.6V116.7H116V323.5H167.7V253.2H213.6V203.4H167.7V166.6H237Z" fill="white"/>
<path d="M255.1 116.7H306.8V323.5H255.1V116.7Z" fill="white"/>
<path d="M371.7 166.6H324V116.7H471.2V166.6H423.5V323.5H371.8V166.6H371.7Z" fill="white"/>
<path d="M681.301 220.1L753.101 144C730.201 126.1 699.401 112.9 664.201 106.7L619.201 154.4L574.201 106.7C539.101 112.9 508.201 126.1 485.301 144L557.101 220.1L485.301 296.2C508.201 314.1 539.001 327.3 574.201 333.5L619.201 285.8L664.201 333.5C699.301 327.3 730.201 314.1 753.101 296.2L681.301 220.1Z" fill="#ED6A12"/>
<path d="M737.801 116.2C737.801 112.4 740.901 109.5 744.601 109.5C748.301 109.5 751.301 112.4 751.301 116.2C751.301 120 748.201 122.9 744.601 122.9C740.901 122.9 737.801 120 737.801 116.2ZM750.001 116.2C750.001 113 747.601 110.6 744.601 110.6C741.501 110.6 739.101 113 739.101 116.2C739.101 119.4 741.501 121.8 744.601 121.8C747.701 121.8 750.001 119.4 750.001 116.2ZM743.201 120.2H742.001V112.4H745.001C746.801 112.4 747.701 113.1 747.701 114.6C747.701 116 746.801 116.6 745.801 116.8L747.901 120.3H746.501L744.401 116.9H743.201V120.2ZM743.201 115.7H744.501C745.901 115.7 746.501 115.5 746.501 114.5C746.501 113.7 746.001 113.3 744.801 113.3H743.201V115.7Z" fill="white"/>
<path d="M737.801 116.2C737.801 112.4 740.901 109.5 744.601 109.5C748.301 109.5 751.301 112.4 751.301 116.2C751.301 120 748.201 122.9 744.601 122.9C740.901 122.9 737.801 120 737.801 116.2ZM750.001 116.2C750.001 113 747.601 110.6 744.601 110.6C741.501 110.6 739.101 113 739.101 116.2C739.101 119.4 741.501 121.8 744.601 121.8C747.701 121.8 750.001 119.4 750.001 116.2ZM743.201 120.2H742.001V112.4H745.001C746.801 112.4 747.701 113.1 747.701 114.6C747.701 116 746.801 116.6 745.801 116.8L747.901 120.3H746.501L744.401 116.9H743.201V120.2ZM743.201 115.7H744.501C745.901 115.7 746.501 115.5 746.501 114.5C746.501 113.7 746.001 113.3 744.801 113.3H743.201V115.7Z" fill="#ED6A12"/>
</svg>
